<svg class="navigation__brand-logo" id="Ebene_2" style="enable-background:new 0 0 271.39 70.39;" version="1.1" viewBox="0 0 271.39 70.39" x="0px" xml:space="preserve" xmlns="http://www.w3.org/2000/svg" xmlns:xlink="http://www.w3.org/1999/xlink" y="0px">
<style type="text/css">
	.st0{stroke:#00A1B9;stroke-width:0.1;}
</style>
<g>
<path d="M106.3,46.68c-4.41,0-7.31-3.56-6.76-9.73c0.56-6.2,4.25-9.62,8.55-9.62c2.37,0,3.7,0.69,4.37,1.28L111.31,31
		c-0.5-0.42-1.25-0.8-2.51-0.8c-2.98,0-4.47,2.6-4.84,6.68c-0.37,4.12,0.86,6.75,3.55,6.75c1.19,0,2.04-0.35,2.69-0.83l0.77,2.6
		C110.12,46.1,108.64,46.68,106.3,46.68L106.3,46.68z"></path>
<path d="M121.61,46.68c-5.41,0-7.65-4.15-7.15-9.66c0.5-5.57,3.49-9.69,8.91-9.69c5.45,0,7.66,4.12,7.15,9.69
		C130.02,42.53,127.03,46.68,121.61,46.68L121.61,46.68z M123.13,30c-3.08,0-4,3.43-4.32,6.99c-0.32,3.53,0.06,6.82,3.08,6.82
		c3.12,0,3.99-3.29,4.31-6.82C126.51,33.42,126.25,30,123.13,30L123.13,30z"></path>
<path d="M144.59,46.34l1.2-13.23c0.14-1.52-0.43-3.11-3.2-3.11c-1.43,0-2.2,0.21-3.06,0.52l-1.43,15.82h-4.38l1.6-17.66
		c1.9-0.83,4.43-1.35,7.69-1.35c5.77,0,7.43,2.7,7.16,5.71l-1.2,13.3H144.59L144.59,46.34z"></path>
<path d="M164.49,46.34l1.2-13.23c0.14-1.52-0.43-3.11-3.2-3.11c-1.43,0-2.2,0.21-3.06,0.52L158,46.34h-4.38l1.6-17.66
		c1.9-0.83,4.43-1.35,7.69-1.35c5.77,0,7.43,2.7,7.15,5.71l-1.2,13.3H164.49L164.49,46.34z"></path>
<path d="M177.63,38.55c0.05,3.46,1.61,5.19,4.8,5.19c2.22,0,3.88-0.52,4.97-1.04l0.8,2.67c-1.43,0.73-3.57,1.31-6.5,1.31
		c-5.49,0-8.65-3.43-8.08-9.73c0.55-6.09,4.06-9.62,9.12-9.62c5.13,0,7.62,3.29,6.88,9.55L177.63,38.55L177.63,38.55z M182.36,29.93
		c-2.55,0-4.48,2.01-4.78,6.47l8.1-1.18C186.02,31.45,184.76,29.93,182.36,29.93L182.36,29.93z"></path>
<polygon points="211.76,46.34 213.45,27.68 217.82,27.68 216.13,46.34 211.76,46.34 	"></polygon>
<path d="M228.16,46.68c-5.42,0-7.65-4.15-7.16-9.66c0.51-5.57,3.49-9.69,8.91-9.69c5.45,0,7.66,4.12,7.16,9.69
		C236.57,42.53,233.58,46.68,228.16,46.68L228.16,46.68z M229.67,30c-3.08,0-4,3.43-4.33,6.99c-0.32,3.53,0.06,6.82,3.08,6.82
		c3.12,0,3.99-3.29,4.31-6.82C233.06,33.42,232.8,30,229.67,30L229.67,30z"></path>
<path d="M251.09,46.34l1.2-13.23c0.13-1.52-0.43-3.11-3.2-3.11c-1.43,0-2.2,0.21-3.06,0.52l-1.43,15.82h-4.38l1.6-17.66
		c1.9-0.83,4.42-1.35,7.69-1.35c5.78,0,7.43,2.7,7.16,5.71l-1.21,13.3H251.09L251.09,46.34z"></path>
<polygon points="209.42,27.68 205.3,27.68 200.66,34.79 200.3,38.75 203.5,46.34 208.31,46.34 203.14,36.4 209.42,27.68 	"></polygon>
<polygon points="199.76,34.64 196.48,27.68 192.35,27.68 197.05,36.4 190.09,46.34 194.89,46.34 199.37,38.91 199.76,34.64 	"></polygon>
<g>
<path d="M55,29.42c-0.36-0.48-0.91-0.63-1.54-0.43c-1.39,0.44-8.82,5.77-8.82,5.77l-1.9,6.52l-3.98,13.68c0,0,9-6.3,12.53-11.74
			c1.23-1.88,2.28-4.15,3.01-6.32C55.43,33.6,55.82,30.53,55,29.42z"></path>
<path d="M34.76,14l-8.9,5.46c-0.37,0.22-0.38,0.54-0.24,0.81c0.13,0.26,0.46,0.36,0.82,0.19c0.36-0.17,0.69-0.32,0.69-0.32
			c1.38-0.74,4.6-2.46,8.18-1.97c2.41,0.33,4.9,1.26,7.6,2.83c2.49,1.45,3.87,2.92,3.99,4.26c0,0.06,0.01,0.12,0.01,0.18
			c0,0.72-0.38,1.41-1.13,2.04c-1.85,1.56-4.39,2.78-5.25,3.19c-1.56-0.79-11.23-5.72-11.54-5.87c-0.41-0.19-0.72-0.05-0.87,0.15
			c-0.02,0.02-0.02,0.05-0.04,0.07c-0.13,0.24-0.1,0.55,0.1,0.79c0.1,0.11,0.24,0.21,1.05,0.73c1.06,0.68,2.84,1.82,4.3,3
			c2.15,1.74,3.52,3.97,3.74,6.11c0.17,1.62,0.14,3.96-0.86,6.36c-0.14,0.35-0.31,0.7-0.5,1.05c-2.31,4.31-5.87,5.27-10.56,2.84
			c-3.83-1.98-7.35-4.18-8.32-4.8c0.05-0.17,0.33-1.2,0.72-2.62c1.07-3.89,2.95-10.71,2.95-10.71c0.02-0.06,0.03-0.13,0.03-0.2
			c0-0.29-0.17-0.54-0.44-0.63c-0.31-0.09-0.61,0.07-0.71,0.39l-3.47,10.33L14.34,43l21.69,11.95l3.86-13.27l2.51-8.65v0l13.09-8.59
			L34.76,14z"></path>
</g>
<path class="st0" d="M103.96,36.93"></path>
<path class="st0" d="M103.85,36.93"></path>
<path d="M93.98,29.36c-1.31-1.46-3.24-2.21-5.74-2.21c-2.44,0-5.4,1.29-5.66,1.4c0,0-1.5,16.99-1.5,16.99
		c1.32,0.89,3.44,1.29,5.69,1.29c5.26,0,8.47-3.53,9.03-9.94C96.1,33.59,95.49,31.05,93.98,29.36z M91.55,36.77
		c-0.42,4.82-1.8,6.88-4.61,6.88c-0.59,0-1.07-0.09-1.33-0.15l1.15-13.12c0.39-0.11,0.82-0.16,1.38-0.16c1.1,0,1.9,0.3,2.46,0.93
		C91.48,32.13,91.79,33.98,91.55,36.77z" id="D2_1_"></path>
<path d="M74.45,35.86c1.06-0.54,2.84-1.77,3.04-3.94c0.11-1.2-0.24-2.26-1-3.08c-1.03-1.1-2.78-1.71-4.92-1.71
		c-2.8,0-4.64,0.74-5.3,1.06l-0.34,0.16l0.95,2.84l0.45-0.21c0.7-0.33,2.02-0.76,3.53-0.76c0.9,0,1.58,0.21,1.96,0.62
		c0.29,0.31,0.48,0.83,0.43,1.37c-0.15,1.61-1.92,2.72-4.58,2.94l-0.36,0.03l-0.24,2.59l0.49-0.01c1.26-0.03,2.94,0.13,3.81,1.03
		c0.45,0.47,0.67,1.13,0.6,1.94c-0.17,1.82-1.59,2.89-3.74,2.89c-1.91,0-3.07-0.51-3.48-0.73l-0.39-0.21l-1.51,2.94l0.36,0.2
		c1.32,0.73,3.04,1.07,5.42,1.07c4.3,0,7.45-2.56,7.85-6.11C77.73,38.51,76.64,36.8,74.45,35.86z"></path>
</g>
</svg>