<svg version="1.2" xmlns="http://www.w3.org/2000/svg" viewBox="0 0 1551 687" width="1551" height="687">
	<title>NORBT-svg</title>
	<style>
		.s0 { fill: #02222f } 
	</style>
	<g>
		<path fill-rule="evenodd" class="s0" d="m86.4 4.6l62.6 96.7h0.7v-96.7h120.2v291.5h-91.1l-57.6-90.1h-0.7v87.8h-120.1v-289.2zm340.4-4.6q38.3 0 70.6 20.1c21.4 13.4 38.2 31.5 50.3 54.2q18.3 33.9 18.3 74.7 0 40.5-18.3 75-18.1 34.5-50.3 54.6-32.4 19.9-70.6 19.9c-25.5 0-49-6.6-70.5-19.9q-31.8-19.7-50.3-54.4-18.3-34.5-18.3-75.3c0-26.5 5.9-51.2 17.9-74.3 12-22.7 28.8-40.8 50.3-54.4 21.7-13.4 45.3-20.2 70.9-20.2zm-26.9 141.3q0 13.6 7.6 21.9c5.3 5.6 11.7 8.4 19.3 8.4q11.3 0 19.2-8.4c5.2-5.8 7.8-13.1 7.8-21.9q0-6.7-2-12.3-2.1-5.5-5.7-9.5-0.9-1-1.9-2-1-0.9-2-1.6-1.1-0.8-2.3-1.5-1.2-0.7-2.4-1.2-5.1-2.3-10.9-2.3-11.4 0-19.1 8.6-7.6 8.3-7.6 21.8zm363.5-136.7q28.9 0 51.5 11.8c15.1 7.7 26.4 18.2 34 31.6 7.6 13.1 11.4 27.6 11.4 43.2 0 13.4-2.7 25.5-7.9 36.4-5.3 10.9-13 20.1-23.1 27.7q22.3 26.7 35.3 61.5c8.7 23.2 14.4 48.9 17.2 77h-124.7q-3.7-57.2-15.8-82-12.1-25-36.3-25.1h-0.7v107.1h-120v-289.2zm-56.2 115.2q17.2 0 25-6.4c5.3-4.3 7.9-11.2 7.9-20.7q0-13.1-7.3-20.8c-4.9-5.2-12-7.8-21.4-7.8h-7.1v55.7zm349.6-115.2q49.2 0 76.3 21.2 27.4 21.3 27.4 59.5 0 21.8-9.2 36.9-9.2 15-26.2 25.3 20.9 11.7 31.8 27.4 10.9 15.6 10.9 38.9-0.1 37.4-24.8 58.6c-16.6 14.3-38.7 21.4-66.3 21.4h-191.3v-289.2zm-51.3 114.5h3.4q9.8 0 16.6-1.5 6.7-1.6 11-5c2.8-2.2 4.9-5.2 6.1-8.8q1.9-5.4 1.9-13 0-14.7-8.1-21.4c-5.4-4.4-13.1-6.6-23-6.6h-7.9zm0 111.1h5c13.1 0 22.5-2.3 28.3-6.8 5.8-4.6 8.7-12.3 8.7-23.2q0-32.6-33.6-32.6h-8.4zm295-225.5v289.2h-120v-289.2zm250 0v128.1h-60.5v161.1h-120.2v-161.1h-60.5v-128.1z"/>
		<g>
			<path fill-rule="evenodd" class="s0" d="m121.5 491.6q9.4 0 13.4 6.1 0.9 1.5 1.6 3.1 0.7 1.6 1.2 3.3 0.4 1.7 0.6 3.4 0.2 1.8 0.1 3.5 0 1.9-0.7 1.9-0.8 0-1.5-1.1-2-3-5.3-4.5c-2.2-1-5.5-1.5-9.7-1.5-5 0-9.4 0.5-13.1 1.7-3.8 1.1-8.7 1.7-15 1.7q-3 0-7.1-1.3c-2.8-0.9-4.8-2.1-6-3.6q-0.8-1.1 0-1.8c0.5-0.6 1-0.6 1.5 0 2 0.9 4 1.5 6 1.5 3.5 0 6.8-0.8 9.9-2.3 3.1-1.5 6.1-3.1 8.8-4.9 2-1.2 4.3-2.4 7-3.5q0.9-0.4 2-0.8 1-0.3 2.1-0.5 1-0.2 2.1-0.3 1.1-0.1 2.1-0.1zm115 41.5c2.5 0 6.7-0.8 12.8-2.6 6-1.7 13-5.5 21.3-11.2 3.5-2.5 7.3-5.3 11.4-8.4q6.2-4.7 11.5-9.6c2-1.7 3.4-2.2 4.1-1.5 0.7 1-0.2 2.7-3 4.9-2.5 2.2-6.2 5.4-11.1 9.3-4.8 4-9 7.1-12.5 9.4-15.5 10.2-29.6 15.3-42.3 15.3-13.8 0-20.4-5-19.9-15q0.4-10.4 11.2-23.2l-0.3-0.3c-0.5 0.5-1.6 1.5-3.2 3-1.7 1.5-3.1 2.7-4.3 3.7q-2.7 2.3-3.8 1.1c-0.5-0.5-0.4-1.1 0.2-1.8 0.6-0.8 1.3-1.5 2.1-2.3q3.7-3.3 6.7-5.8c2-1.6 4.4-3.4 7.1-5.4 2-1.6 4.7-3.3 8.1-5.3 3.3-1.9 6.8-4 10.3-5.9 5.4-2.8 11-5.2 16.4-7.3 5.5-2.2 10.8-3.2 15.8-3.2h0.3q6.4 0 8.8 3.2c1.6 2.1 2.3 4.4 2.1 6.9q-0.8 7.4-8.1 13.1c-4.8 3.7-10.2 7-15.9 9.7-5.5 2.8-11.2 5.1-17 7.1-5.9 2-10.9 3.6-15.2 4.9-1.5 3-2.2 5.9-2.2 8.6q0 8.6 8.6 8.6zm-4.1-21.3c3.7-1 7.9-2.4 12.5-4.3 4.7-1.9 9-4.2 13-6.9q7.1-4.9 11-10.2c2.6-3.4 4.1-6.6 4.3-9.3 0.5-3.5-1-5.2-4.5-5.2-3.3 0-8.7 3.6-16.5 10.9q-4.5 4.1-10.5 11.8c-3.9 5-7.1 9.5-9.3 13.2z"/>
			<path class="s0" d="m329.8 517.1q-4.5 6.7-12 13.6-7.5 7-16.1 7-6.8 0-10.9-3.2-4.1-3.2-3.3-10.7c0.2-4 1.8-7.6 4.6-10.7q4.3-4.7 10-4.7c2.7 0 4.8 1 6.3 2.8 1.5 1.9 1.7 4.1 0.8 6.6q-1.2 3-3.8 4.7c-1.8 1.1-2.9 2.7-3.4 4.7q-0.3 2.3 0.8 3.3c0.7 0.8 1.7 1.2 3 1.2q6.7-0.1 13.6-7.9 7-7.8 13.3-17.2c2.8-4 5.2-7.8 7.5-11.5q3.4-5.4 4.5-9.9c1-4.7-0.5-7.5-4.5-8.2q-6.7-1.2-14.4 3.6-7.7 4.7-13.7 9.1c-3.2 2.5-6.3 5-9.1 7.6-2.9 2.4-5.6 4.8-8.1 7q-2.3 1.9-3.9 3.2c-1.2 0.9-2 1.1-2.5 0.6q-1.1-1.1 4.5-6.4 4.5-4.1 10.5-9.1 6-5.1 10.5-8.4 5.2-4.2 13.3-8.5c5.4-2.8 10.9-4.2 16.7-4.2 2 0 4 0.3 6.2 1.1q3.1 1.1 5.8 3.3c1.7 1.5 3 3.6 3.7 6.2 0.8 2.6 0.8 5.8 0 9.5h0.4q6-6.7 14-13.4c5.4-4.5 10.5-6.8 15.6-6.8q6 0 8.7 4c1.9 2.6 2.5 5.6 1.7 9.1-0.5 2.8-1.9 5.1-4.3 7.1-2.4 2-4.9 3-7.6 3-1.6 0-2.9-0.4-4.2-1.3q-1.9-1.3-1.5-4.3c0.3-1.5 0.8-2.7 1.7-3.5 0.9-0.9 1.5-2.1 2.1-3.6q0.7-3-3-3-3 0-6.6 2.4-3.6 2.5-7.7 6.6c-2 1.7-4.1 3.9-6.3 6.3-2.3 2.5-4.9 5.9-7.9 10.1q-3 4.2-5.8 8.9-2.8 4.6-3.5 8-1.2 4.1-0.4 6.9 0.7 2.9 4.1 3.6 5.2 1.1 13.9-2.8 8.6-4 16.5-10 6.3-4.4 11.6-9.3 5.2-4.8 8.6-7.9c1.5-1.5 2.8-1.8 3.7-1.1q0.8 1.2-2.2 4.1-3.8 3.4-8.8 8.1c-3.4 3.1-7.1 6.1-11.1 9.2q-6.3 4.8-15.7 10.3c-6.3 3.5-12.8 5.4-19.5 5.4-5.8 0-10.3-1.8-13.7-5.2-3.3-3.6-4.2-8.7-2.7-15.4z"/>
			<path class="s0" d="m438.8 470.6c-8.8 8-16.4 15-23.1 21q-9.9 9-14.4 13.1-4.9 4.5-6 3.3-0.8-0.7 0.8-2.6c0.9-1.3 2.5-2.7 4.5-4.5 4.2-3.7 8.6-7.7 13.3-12 4.6-4.2 8.6-8.1 12.1-11.6q5.3-4.9 15-13.7c6.5-5.9 12.9-11.6 19.1-17.4q3-3 6.8-5.2 0.9-0.6 1.8-1 1-0.4 2-0.7 1-0.3 2-0.4 1-0.2 2-0.2c4.3 0 6.1 0.6 5.5 1.9q-1 1.9-5.8 7.5-8.3 9.7-19.3 23.4c-7.3 9.2-15.2 19.1-23.6 30-8.3 10.8-17.1 22.3-26.2 34.2-9.1 12-18.1 24.1-27.1 36.4q-12.4 16.8-20.8 28.4c-5.6 7.7-10.8 15-15.6 21.8q-7.1 10.1-14.2 20.7c-4.7 7.1-10.2 15.6-16.4 25.3q-2.3 3.8-2.7 5.2c-0.2 1.1-0.1 1.8 0.4 2.3 1 1 2.6 0.2 4.9-2.3q1.9-2.2 5-6.5c2.1-2.9 4.6-6.2 7.3-9.9 2.8-3.8 5.6-7.7 8.4-12 2.9-4.3 5.7-8.2 8.5-12q6-8.6 17.7-24.4c7.9-10.5 16.3-21.7 25.3-33.6 7.7-10.3 15.4-20.2 23.1-30 7.6-9.7 15-18.8 22.2-27.3q2-2.3 4-4.5 2.1-2.2 4.1-4.4 2.1-2.2 4.2-4.3 2.1-2.2 4.2-4.3 9-8.7 16.5-14.4 1.9-1.4 3.9-2.8 1.9-1.3 3.9-2.6 2.1-1.2 4.1-2.4 2.1-1.2 4.2-2.3c5.8-3 11.1-4.5 16.1-4.5 8.3 0 12 3.2 11.3 9.7q-0.8 4.9-5.5 10.7-4.7 5.8-9.9 11.8c-3 3.5-5.6 6.6-7.9 9.2-2.2 2.6-4 4.9-5.2 6.9-2.8 4.3-3.1 7.1-1.1 8.7 2 1.5 5.3 1 10.1-1.2 2.2-1.2 4.8-2.7 7.7-4.5 2.8-1.7 6-4 9.5-6.7q5.2-4.1 9.3-7.7c2.8-2.4 5.4-4.7 7.9-6.9 1-1 2.1-1.9 3.2-2.6 1.1-0.8 1.9-0.9 2.4-0.4 0.5 0.5 0.3 1.3-0.7 2.4-1 1.1-1.8 2-2.3 2.4q-1.4 1.5-4.2 3.9c-1.9 1.7-3.9 3.4-6 5.3-2.1 1.9-4.3 3.7-6.6 5.4q-3.4 2.6-6 4.9c-4 3-9 6.2-15 9.8q-9 5.2-18.7 5.2-7.1 0-10-3.4-2.8-3.3-2-7.5c0.5-4 2.5-8.2 6-12.7 3.5-4.5 7-8.6 10.5-12.4 3-3.5 6.1-6.9 9.3-10.5q4.9-5.2 6.8-8.2 2.3-3.7 0-4.8-1.1-0.8-3.6 0-2.4 0.7-4.7 1.8c-6 3-12.1 7-18.5 11.8q-9.5 7.3-20.4 19.3c-3 3.2-6.6 7.4-10.7 12.3-4.1 5-8.6 10.5-13.5 16.5-4.8 6-9.9 12.3-15 18.9q-1.9 2.5-3.8 5-1.9 2.5-3.8 5-1.9 2.5-3.8 5-1.9 2.5-3.8 5c-8.2 11.3-16.4 22.3-24.5 33.2q-2.7 3.5-5.3 7.1-2.6 3.5-5.2 7.1-2.6 3.6-5.2 7.2-2.5 3.6-5.1 7.2-4.5 6.7-9.2 13.3c-3.1 4.3-6.1 8.5-8.9 12.3-2.9 3.9-5.5 7.3-7.9 10.1q-3.5 4.3-6.2 6.5-2.3 1.9-5 3.2c-1.9 0.9-3.9 1.1-5.8 0.6-4.3-0.7-6.4-3.3-6.4-7.9q0-6.4 4.3-14.6c2.9-5.5 6.2-11.1 10-16.8 3.5-5.3 6.9-10.4 10.3-15.4q5-7.4 11-15.9 6-8.4 13.5-18.7 7.5-10.3 17.6-23.8c4.5-6.2 10.2-13.9 17.2-23.2q10.5-13.9 21.9-28.7 11.4-14.7 22.1-28.4c7.1-8.9 13-16.5 17.8-22.5z"/>
			<path class="s0" d="m540.6 489.4q-4.1 3.7-8.2 7.2c-2.8 2.4-5.1 4.6-7.1 6.6q-3 2.6-4.1 1.1c-0.3-0.7 0.3-1.8 1.8-3.3 0.3-0.3 1.3-1.2 3.2-2.9 1.9-1.6 4.2-3.5 6.8-5.8 2.6-2.2 5.4-4.7 8.4-7.3 3-2.6 6-5.2 9-7.6q3.7-4.5 8.8-10.9 5.1-6.4 10.8-13.7c3.9-4.8 8-9.8 12.2-14.8q6.4-7.4 12.4-14.2c6.4-7.5 13.4-15.2 21-23.2 7.4-7.9 15.3-15.7 23.5-23.2q7.2-6.3 13.5-6.3c3.8 0 5.6 0.8 5.6 2.6-1.7 1.7-4.9 5.1-9.5 10.1-4.6 5-9.7 10.5-15.2 16.6q-2.1 2.4-4.2 4.7-2 2.3-4.1 4.7-2.1 2.3-4.2 4.7-2 2.3-4.1 4.7-8.4 9.5-14.4 16.6-9.4 11.3-19 23.2-2.2 2.8-4.4 5.7-2.3 2.8-4.5 5.7-2.2 2.8-4.3 5.7-2.2 2.9-4.4 5.8c-5.3 7.2-10.1 14-14.2 20.4q-6.1 9.5-9.1 15.9c-0.5 1.3-1.1 2.9-1.7 5.1-0.7 2.1-0.4 3.8 0.9 5 1.2 1 3 1.1 5.4 0.4 2.4-0.8 4.4-1.6 6.2-2.7 2.5-1.2 5-2.8 7.5-4.7 2.5-1.8 5.1-3.8 7.9-5.8 3.5-2.7 6.5-5.2 9-7.3q3.7-3.1 7.4-6.5 1.1-1.1 3-2.4c1.3-0.9 2.1-1.1 2.7-0.6q0.7 1.1-2.7 4.5c-2.2 2.2-5.5 5.2-9.7 8.8-4.2 3.6-8.6 7.2-13.1 10.7q-3 2.2-6.7 4.8c-2.5 1.8-5.3 3.4-8.3 4.9-3 1.5-6.1 2.8-9.3 3.8-3.3 1-6.4 1.5-9.4 1.5q-5.6 0-8.8-2.4-3.1-2.5-2.8-7.7c0.3-4.5 2.4-10.1 6.4-16.9q5.9-10.1 14.6-20.9z"/>
			<path class="s0" d="m590.8 500.9c-1 0.8-2.1 1.8-3.3 3-2.5 2.3-4.2 3-4.9 2.3-0.5-0.6-0.4-1.2 0.4-2.1 0.7-0.9 1.5-1.7 2.2-2.4 1.3-1.3 3-2.8 5.2-4.7 2.3-1.9 4.4-3.4 6.4-4.7 2.5-1.7 5.1-3.5 7.9-5.2 2.7-1.7 6.1-3.6 10.1-5.6 5.5-2.8 11-5.1 16.4-7q8.3-2.8 14.7-3.1c1.2 0 2.4 0 3.7 0.1 1.2 0.1 1.8 0.6 1.8 1.3 0 0.3-1.3 1-4.1 2.3-4.5 1.9-8.8 4.6-12.9 8-4.1 3.3-8.8 7.6-14 12.5q-2.1 2.1-4 4.2-1.9 2.2-3.8 4.4-1.8 2.2-3.5 4.5-1.7 2.3-3.3 4.7c-4.3 6.4-6.6 11.5-7.2 15.2q-0.7 6.4 5.3 6.4 6.3 0 16.3-6.6c6.6-4.4 12.8-9.8 18.5-16.3q0.4-3 1.7-6.9c0.9-2.6 2.5-5.6 5-8.8 2-2.8 4.2-5 6.6-6.6 2.4-1.6 4.2-2.7 5.4-3.1 0.5-1.3 0.8-2.8 1-4.5 0.1-1.8 0.2-3.2 0.2-4.1q0-3-0.6-4.2c-0.3-0.7-0.3-1.3 0.2-1.8q1.1-0.8 2.6 0.1c1 0.7 1.9 1.3 2.7 2.1 1.5 1.5 2.7 3.3 3.7 5.6 1 2.2 1.3 4.7 0.8 7.4-0.5 4.5-2.8 9.3-6.8 14.5q-6 7.8-14.6 15.6 1.1 0.8 3.6 0.5c1.6-0.1 2.8-0.3 3.6-0.5q5.5-1.1 12.7-6.3c2.5-1.7 4.6-3.2 6.3-4.5 1.7-1.4 3.6-3.1 5.6-5 3.5-3.2 5.7-4.4 6.4-3.7 0.8 0.8-0.9 3-4.9 6.8-1.7 1.5-3.5 3.1-5.4 4.7-1.9 1.6-4.1 3.3-6.6 5q-4.4 3-7.8 4.5-3.4 1.5-6.4 2.3-2.6 0.7-5.4 0.5c-1.9-0.1-3.5-0.5-4.7-1.3q-3.7 3-8.6 6.2c-3.2 2.1-6.7 4-10.5 5.8q-5.6 2.6-11.8 4.5-6.2 1.9-11.8 1.9c-5.7 0-10.3-1.4-13.6-4.1q-5.1-4.1-4.7-12.4 0.7-11.9 12-24l-0.4-0.3c-1.3 1.2-2.4 2.2-3.4 2.9z"/>
			<path class="s0" d="m743.6 481.5q0 3.7-5.4 9.3-1.6 1.6-3.1 3.2-1.5 1.7-2.9 3.3-1.5 1.6-3 3.3-1.4 1.6-2.8 3.3c-6.5 7.5-10.8 13.4-12.8 17.6q-3 5.3-0.3 7.1c1.5 1.3 4.2 0.8 8.2-1.5 2-1.2 4.6-2.8 7.7-4.7q4.7-2.8 9.1-6.5 6.4-4.9 10.2-8.1c2.4-2.1 4.9-4.3 7.5-6.5q4.1-4.2 5.6-3.1c0.5 0.6 0.2 1.3-0.8 2.5-1 1.1-2.2 2.4-3.7 3.9-2.3 2-5.2 4.6-8.8 7.9-3.6 3.2-7.8 6.6-12.6 10.1-4 3-8.9 6.2-14.9 9.7q-9 5.2-18.4 5.3-6-0.1-9-2.9-3-2.8-2.6-6.9c0.2-4.3 2.2-8.7 6-13.5 3.7-4.7 7.7-9.1 12-13.1q3.3-3.3 7.5-6.7c2.7-2.3 5.3-4.3 7.6-6.2 2.4-1.9 4.5-3.6 6.2-5.1 1.7-1.5 2.8-2.6 3-3.3 0.8-2-0.3-3-3.4-3h-16.6q-2.1 0-3.6-0.8-4.9 5.3-14.2 14.2-4.9 4.6-8.5 7.7-3.5 3.2-6.5 6.2c-3 2.7-4.9 3.8-5.7 3-0.7-0.7 0.7-2.7 4.2-6q3.3-3 6.3-5.8 3-2.8 8.2-7.7 8.3-7.8 13.1-13.1c-1.7-1.2-2.6-3-2.8-5.2-0.1-2.2 0.8-4.5 2.8-6.8q5.3-6.3 14.2-6.3c1.6 0 3 0.3 4.4 0.9q2 0.9 2.4 2.8-1.9 1.6-3.2 2.5c-0.9 0.6-1.9 1.5-3.2 2.8-4.7 5-4.4 7.7 1.1 8.2q7.9 0.4 14.6 1.3 6.8 0.9 6.8 6.2v0.5z"/>
			<path fill-rule="evenodd" class="s0" d="m778.8 533.1c2.5 0 6.8-0.8 12.8-2.6 6-1.7 13.1-5.5 21.3-11.2 3.5-2.5 7.3-5.3 11.5-8.4q6.1-4.7 11.4-9.6c2-1.7 3.4-2.2 4.1-1.5 0.8 1-0.2 2.7-3 4.9-2.5 2.2-6.2 5.4-11.1 9.3-4.8 4-9 7.1-12.5 9.4-15.5 10.2-29.6 15.3-42.3 15.3-13.7 0-20.3-5-19.9-15q0.4-10.4 11.3-23.2l-0.4-0.3c-0.5 0.5-1.6 1.5-3.2 3-1.6 1.5-3.1 2.7-4.3 3.7-1.8 1.5-3 1.9-3.8 1.1-0.5-0.5-0.4-1.1 0.2-1.8 0.6-0.8 1.3-1.5 2.1-2.3q3.7-3.3 6.7-5.8c2-1.6 4.4-3.4 7.2-5.4 1.9-1.6 4.6-3.3 8-5.3 3.4-1.9 6.8-4 10.3-5.9 5.5-2.8 11-5.2 16.5-7.3 5.4-2.2 10.7-3.2 15.7-3.2h0.4q6.3 0 8.7 3.2c1.7 2.1 2.4 4.4 2.1 6.9q-0.7 7.4-8.1 13.1c-4.8 3.7-10.1 7-15.9 9.7-5.5 2.8-11.2 5.1-17 7.1-5.9 2-10.9 3.6-15.2 4.9-1.5 3-2.2 5.9-2.2 8.6q0 8.6 8.6 8.6zm-4.1-21.3c3.7-1 7.9-2.4 12.5-4.3 4.7-1.9 8.9-4.2 12.9-6.9q7.2-4.9 11.1-10.2c2.6-3.4 4-6.6 4.3-9.3 0.5-3.5-1-5.2-4.5-5.2-3.3 0-8.8 3.6-16.5 10.9q-4.5 4.1-10.5 11.8c-3.9 5-7.1 9.5-9.3 13.2zm138.2-28.1q7.5-6 13.5-9.2c4-2.1 7.9-3.1 12-3.1 3.5 0 5.9 0.9 7.3 2.6 1.4 1.7 2.1 3.6 2.1 5.6q-0.1 3.4-2.1 7.2c-1.4 2.5-3.4 5.4-5.8 8.9-2.8 3.8-5.9 7.9-9.4 12.4-3.5 4.5-6.2 8.2-8.2 11.2l0.4 0.4q6.7-5.7 15.7-13.1c6-5 12.2-10 18.7-15 6.5-5 13.5-9.6 21-13.9 7.5-4.2 14-6.3 19.5-6.3 4.7 0 8 1 9.9 3q2.8 3 2.1 7.8-0.8 4.5-5.2 10.1-4.5 5.7-9.4 11.3-4.9 5.6-7.8 9.3-3 3.7-5.7 7.1l0.4 0.4q6.4-5.6 15.9-13.5 9.6-7.9 19.3-15.4 2.5-1.9 5.1-3.7 2.5-1.8 5.1-3.5 2.7-1.8 5.4-3.4 2.6-1.6 5.4-3.2c7.4-4.3 14-6.3 19.8-6.3 4.3 0 7.4 0.9 9.4 2.8q3 2.7 2.2 7.3c-0.5 3.4-2.4 7.2-5.6 11.2-3.3 4-6.3 7.8-9.4 11.6-2.9 3.5-5.4 6.6-7.4 9.5q-3 4.3-4.9 7-4.1 6.3-1.5 8.2 1.4 1.1 4.1 0.3c1.7-0.5 3.3-1 4.9-1.8 2.2-1.3 4.7-2.7 7.4-4.3 2.8-1.7 6.3-4 10.5-7.3 3.3-2.5 6.6-5.2 10-8q5-4.4 8-7.3 3.8-3.4 4.9-2.3 0.7 1.2-3 4.9-2.7 2.6-9.6 8.8c-4.6 4.1-8.9 7.7-12.9 10.7-2 1.5-4.3 3.1-6.9 4.8-2.7 1.8-5.5 3.4-8.4 4.9-3 1.5-6.1 2.8-9.2 3.8-3.1 1-6.2 1.5-9.2 1.5q-12 0-11.2-9.8 0.3-6.3 5.6-13.2 5.2-6.9 10.1-13 4.1-5.2 8.1-9.7 3.9-4.5 7.6-8.6 1.2-1.5 1.5-3 0.4-1.5-1.1-2.2-1.5-0.8-4.1 0c-1.8 0.5-3.6 1.2-5.6 2.2-3.5 1.7-7.7 4.2-12.7 7.3q-7.5 4.7-16.5 11.8-1.5 1.1-2.9 2.2-1.4 1.1-2.8 2.2-1.4 1.1-2.8 2.3-1.4 1.1-2.8 2.3c-3.2 2.7-6.5 5.4-9.7 8-3.2 2.6-6.6 5.3-9.9 8.1q-5.1 4.1-11.1 9-4.5 3.3-9.7 3.3c-3 0-4.9-0.4-5.6-1.1q-1.1-1.1 0.7-4.9 3-6 8.8-14.4 5.8-8.4 11.1-14.8 4.8-6 9.3-10.7c3-3.1 5.1-5.6 6.4-7.6q1.1-1.6 1.3-3 0.1-1.5-1.7-2.3-2.6-0.7-9.4 2.3c-3.5 1.7-7.8 4.2-12.9 7.4-5.1 3.3-10.5 7.2-16.3 11.7q-6.4 4.9-11.2 9c-3.2 2.7-6.5 5.4-9.7 8-3.3 2.6-6.6 5.3-10 8.1q-5 4.1-11 9c-3 2.2-6.3 3.3-9.8 3.3q-4.1 0-5.6-1c-1-0.6-0.7-2.2 0.8-5 1.2-2.5 3.6-6.3 7.1-11.4q5.2-7.7 9.3-13.7c2.8-4 5.5-7.5 8.1-10.7 2.6-3.1 4.9-6 6.9-8.8 2.5-3.2 3.4-5.4 2.7-6.3-1-1.3-2.9-1.1-5.7 0.3-2.2 1.3-4.6 2.8-7.3 4.5q-3.9 2.7-7.3 5.6c-2.5 2-5.1 4.3-7.8 6.8l-8.3 7.5q-5.2 4.5-6.3 3.4-0.8-1.2 5.6-7.1 3.4-3 8.8-8.1c3.5-3.4 7.1-6.5 10.6-9.2z"/>
			<path class="s0" d="m1090 500.9c-1 0.8-2.1 1.8-3.3 3-2.5 2.3-4.2 3-4.9 2.3-0.5-0.6-0.4-1.2 0.4-2.1 0.7-0.9 1.5-1.7 2.2-2.4 1.3-1.3 3-2.8 5.2-4.7 2.3-1.9 4.4-3.4 6.4-4.7 2.5-1.7 5.1-3.5 7.9-5.2 2.7-1.7 6.1-3.6 10.1-5.6 5.5-2.8 11-5.1 16.5-7q8.2-2.8 14.6-3.1c1.2 0 2.5 0 3.7 0.1 1.2 0.1 1.8 0.6 1.8 1.3 0 0.3-1.3 1-4.1 2.3-4.5 1.9-8.8 4.6-12.9 8-4.1 3.3-8.8 7.6-14 12.5q-2.1 2.1-4 4.2-1.9 2.2-3.8 4.4-1.8 2.2-3.5 4.5-1.7 2.3-3.3 4.7c-4.3 6.4-6.6 11.5-7.2 15.2q-0.7 6.4 5.3 6.4 6.3 0 16.3-6.6c6.6-4.4 12.8-9.8 18.5-16.3q0.4-3 1.7-6.9c0.9-2.6 2.5-5.6 5-8.8 2-2.8 4.2-5 6.6-6.6 2.4-1.6 4.2-2.7 5.4-3.1 0.5-1.3 0.9-2.8 1-4.5 0.1-1.8 0.2-3.2 0.2-4.1q0-3-0.6-4.2c-0.3-0.7-0.3-1.3 0.2-1.8q1.1-0.8 2.7 0.1c0.9 0.7 1.8 1.3 2.6 2.1 1.5 1.5 2.7 3.3 3.7 5.6 1 2.2 1.3 4.7 0.8 7.4-0.5 4.5-2.8 9.3-6.8 14.5q-6 7.8-14.6 15.6 1.1 0.8 3.6 0.5c1.6-0.1 2.8-0.3 3.6-0.5q5.5-1.1 12.7-6.3c2.5-1.7 4.6-3.2 6.3-4.5 1.7-1.4 3.6-3.1 5.6-5 3.5-3.2 5.7-4.4 6.4-3.7 0.8 0.8-0.9 3-4.8 6.8-1.8 1.5-3.6 3.1-5.5 4.7-1.9 1.6-4.1 3.3-6.6 5-3 2-5.6 3.5-7.8 4.5q-3.4 1.5-6.4 2.3-2.6 0.7-5.4 0.5c-1.9-0.1-3.5-0.5-4.7-1.3q-3.7 3-8.6 6.2c-3.2 2.1-6.7 4-10.5 5.8q-5.6 2.6-11.8 4.5-6.2 1.9-11.8 1.9c-5.7 0-10.3-1.4-13.6-4.1q-5.1-4.1-4.7-12.4 0.7-11.9 12-24l-0.4-0.3c-1.2 1.2-2.3 2.2-3.4 2.9z"/>
			<path class="s0" d="m1242.8 481.5q0 3.7-5.4 9.3-1.5 1.6-3 3.2-1.5 1.7-3 3.3-1.5 1.6-2.9 3.3-1.5 1.6-2.9 3.3c-6.5 7.5-10.7 13.4-12.7 17.6q-3 5.3-0.4 7.1c1.5 1.3 4.3 0.8 8.3-1.5 1.9-1.2 4.5-2.8 7.6-4.7q4.7-2.8 9.2-6.5 6.4-4.9 10.1-8.1c2.5-2.1 5-4.3 7.5-6.5q4.1-4.2 5.6-3.1c0.5 0.6 0.3 1.3-0.7 2.5-1 1.1-2.3 2.4-3.8 3.9-2.2 2-5.2 4.6-8.7 7.9-3.7 3.2-7.9 6.6-12.6 10.1-4 3-9 6.2-15 9.7q-9 5.2-18.4 5.3-6-0.1-9-2.9-3-2.8-2.6-6.9c0.2-4.3 2.2-8.7 6-13.5 3.8-4.7 7.7-9.1 12-13.1q3.4-3.3 7.5-6.7c2.8-2.3 5.3-4.3 7.7-6.2 2.4-1.9 4.4-3.6 6.2-5.1 1.7-1.5 2.7-2.6 2.9-3.3 0.8-2-0.3-3-3.3-3h-16.7q-2.1 0-3.6-0.8-4.8 5.3-14.2 14.2-4.8 4.6-8.4 7.7-3.6 3.2-6.6 6.2c-3 2.7-4.8 3.8-5.6 3-0.8-0.7 0.6-2.7 4.1-6q3.4-3 6.3-5.8 3.1-2.8 8.3-7.7 8.2-7.8 13.1-13.1c-1.8-1.2-2.7-3-2.8-5.2-0.2-2.2 0.8-4.5 2.8-6.8q5.2-6.3 14.2-6.3c1.5 0 2.9 0.3 4.3 0.9q2.1 0.9 2.4 2.8-1.9 1.6-3.2 2.5c-0.8 0.6-1.9 1.5-3.2 2.8-4.7 5-4.4 7.7 1.2 8.2q7.8 0.4 14.6 1.3 6.7 0.9 6.7 6.2v0.5z"/>
			<path fill-rule="evenodd" class="s0" d="m1278.1 533.1c2.5 0 6.7-0.8 12.7-2.6 6-1.7 13.1-5.5 21.4-11.2 3.5-2.5 7.3-5.3 11.4-8.4q6.2-4.7 11.5-9.6c1.9-1.7 3.3-2.2 4.1-1.5 0.7 1-0.3 2.7-3 4.9-2.5 2.2-6.2 5.4-11.1 9.3-4.8 4-9 7.1-12.5 9.4-15.5 10.2-29.6 15.3-42.3 15.3-13.8 0-20.4-5-19.9-15q0.4-10.4 11.2-23.2l-0.4-0.3c-0.4 0.5-1.5 1.5-3.1 3-1.7 1.5-3.1 2.7-4.3 3.7-1.8 1.5-3 1.9-3.8 1.1-0.5-0.5-0.4-1.1 0.2-1.8 0.6-0.8 1.3-1.5 2.1-2.3q3.7-3.3 6.7-5.8c2-1.6 4.4-3.4 7.1-5.4 2-1.6 4.7-3.3 8.1-5.3 3.3-1.9 6.8-4 10.3-5.9 5.4-2.8 10.9-5.2 16.4-7.3 5.5-2.2 10.8-3.2 15.8-3.2h0.3q6.4 0 8.8 3.2c1.6 2.1 2.3 4.4 2.1 6.9q-0.8 7.4-8.1 13.1c-4.8 3.7-10.2 7-15.9 9.7-5.5 2.8-11.2 5.1-17 7.1-5.9 2-10.9 3.6-15.2 4.9-1.5 3-2.2 5.9-2.2 8.6 0 5.8 2.8 8.6 8.6 8.6zm-4.1-21.3c3.7-1 7.9-2.4 12.5-4.3 4.6-1.9 8.9-4.2 12.9-6.9q7.1-4.9 11.1-10.2c2.6-3.4 4-6.6 4.3-9.3 0.5-3.5-1-5.2-4.5-5.2-3.3 0-8.8 3.6-16.5 10.9q-4.5 4.1-10.5 11.8c-4 5-7.1 9.5-9.3 13.2zm175.2-20.2q9.4 0 13.3 6.1 1 1.5 1.7 3.1 0.7 1.6 1.2 3.3 0.4 1.7 0.6 3.4 0.2 1.8 0.1 3.5 0 1.9-0.8 1.9-0.7 0-1.5-1.1-1.9-3-5.2-4.5c-2.3-1-5.5-1.5-9.7-1.5-5 0-9.4 0.5-13.1 1.7-3.8 1.1-8.8 1.7-15 1.7q-3 0-7.2-1.3c-2.7-0.9-4.7-2.1-6-3.6q-0.7-1.1 0-1.8c0.5-0.6 1.1-0.6 1.5 0 2 0.9 4 1.5 6 1.5 3.5 0 6.9-0.8 10-2.3 3.1-1.5 6-3.1 8.8-4.9 2-1.2 4.3-2.4 6.9-3.5q1-0.4 2-0.8 1.1-0.3 2.1-0.5 1.1-0.2 2.2-0.3 1-0.1 2.1-0.1z"/>
		</g>
	</g>
</svg>