<svg xmlns="http://www.w3.org/2000/svg" width="157.55" height="26.258" viewBox="0 0 157.55 26.258">
  <g id="nordcad2" transform="translate(0 919.3)">
    <path id="Path_566" data-name="Path 566" d="M4745.253-916.438v2.862l-.463-.017c-.257-.009-.551-.023-.654-.029a26.764,26.764,0,0,0-3.7.243c-.077.014-.206.034-.286.043-.263.031-.708.109-.971.171-.109.026-.246.051-.3.06-.125.02-.64.143-.9.217-.517.149-1.048.314-1.172.368-.031.011-.12.043-.2.069a1.144,1.144,0,0,0-.206.089.249.249,0,0,1-.106.04.847.847,0,0,0-.2.071c-.086.04-.229.1-.314.143a1.646,1.646,0,0,1-.181.074,4.513,4.513,0,0,0-.422.229c-.018.014-.04.017-.048.006s-.02-.006-.02.011-.043.049-.091.069a8.356,8.356,0,0,0-1.188.74.051.051,0,0,1-.048.029c-.02,0-.043.009-.049.023a2.977,2.977,0,0,1-.323.269,9.743,9.743,0,0,0-1.128,1.125.3.3,0,0,1-.062.077.688.688,0,0,0-.094.109c-.015.026-.08.117-.146.2s-.134.186-.153.223a.718.718,0,0,1-.089.128.174.174,0,0,0-.054.091.054.054,0,0,1-.021.046,3.076,3.076,0,0,0-.365.671,9.88,9.88,0,0,0-.554,1.494c-.072.283-.2.954-.2,1.043a1.493,1.493,0,0,1-.026.234,10.058,10.058,0,0,0-.074,1.608c-.005.7,0,1.145.032,1.442.054.611.091.937.106.985a1.181,1.181,0,0,1,.031.171c.038.3.071.508.1.643.017.077.037.169.046.2.068.343.157.694.254,1.014.08.254.24.731.274.814.02.046.037.1.043.114s.223.523.263.605l.2.406c.1.194.191.366.206.386s.1.151.194.3a6.173,6.173,0,0,0,.431.605c.009.009.061.071.114.143s.12.149.143.171.12.129.217.231a6.536,6.536,0,0,0,1.266,1.04c.031.008.06.031.06.049s.009.023.017.014.08.023.151.074a6.989,6.989,0,0,0,.9.457,8.794,8.794,0,0,0,1.828.506,9.986,9.986,0,0,0,1.628.12,9.072,9.072,0,0,0,1.523-.1,1.651,1.651,0,0,1,.191-.029c.094-.009.237-.029.314-.043s.226-.04.328-.06.309-.063.458-.1.3-.08.328-.086c.057-.011.085-.02.614-.2a6.828,6.828,0,0,0,1.631-.8.911.911,0,0,1,.151-.1.337.337,0,0,0,.094-.086.224.224,0,0,1,.106-.086.836.836,0,0,0,.2-.157,1.561,1.561,0,0,1,.177-.157.845.845,0,0,1,.1.186c.049.1.125.271.171.374a2.07,2.07,0,0,1,.086.2c0,.02.292.663.346.763a.261.261,0,0,1,.025.094c0,.023.009.043.023.043a.391.391,0,0,1,.074.149.53.53,0,0,0,.086.171c.017.011,1.576.023,3.468.023h3.433v-26.1l-2.233-.02c-1.231-.009-2.948-.026-3.813-.034l-1.58-.02Zm-1.371,9.054.342.043c.072.009.174.023.229.031a3.489,3.489,0,0,1,.943.211c0,.009.02.126.043.26.045.257.048.28.111.814a13.861,13.861,0,0,1,0,3.242,5.516,5.516,0,0,1-.96,2.485,3.113,3.113,0,0,1-1.142.98,3.663,3.663,0,0,1-1.469.291,7.066,7.066,0,0,1-1.1-.057,5.066,5.066,0,0,1-.686-.191,3.177,3.177,0,0,1-1.494-1.18,3.227,3.227,0,0,1-.237-.414,5.045,5.045,0,0,1-.471-2.6c.02-.228.04-.448.045-.486a5.007,5.007,0,0,1,.254-.963,2.121,2.121,0,0,0,.074-.206,5.989,5.989,0,0,1,.317-.566,2.156,2.156,0,0,1,.426-.488,2.514,2.514,0,0,1,.475-.428.9.9,0,0,0,.143-.089,5.379,5.379,0,0,1,2.281-.7,1.405,1.405,0,0,0,.271-.031C4742.3-907.452,4743.645-907.412,4743.882-907.384Z" transform="translate(-4595.329 0)" fill="#d0383f"/>
    <path id="Path_567" data-name="Path 567" d="M2515.35-914.272c0,1.554-.006,2.842-.014,2.865s-.115.034-.552.014c-.471-.02-2.134-.006-2.362.023-.046.006-.22.017-.385.029s-.332.023-.372.029-.134.017-.214.026l-.271.031c-.072.006-.243.026-.385.04a21.379,21.379,0,0,0-2.368.434c-.062.017-.131.034-.157.043l-.146.037c-.054.014-.177.049-.271.071s-.286.083-.428.131-.283.094-.314.1a1.487,1.487,0,0,0-.157.054c-.054.023-.223.089-.371.143a11.635,11.635,0,0,0-2.3,1.157c-.157.1-.291.194-.3.206a1.7,1.7,0,0,1-.157.111c-.077.054-.154.111-.171.128a.994.994,0,0,1-.143.117,1.95,1.95,0,0,0-.191.16.323.323,0,0,1-.092.08,5.2,5.2,0,0,0-.383.369,5.893,5.893,0,0,0-.882,1.045c-.077.108-.146.206-.155.214a.275.275,0,0,0-.037.057c-.009.023-.077.14-.146.257a7.285,7.285,0,0,0-.414.823,1.067,1.067,0,0,1-.057.134.982.982,0,0,0-.057.137.454.454,0,0,1-.04.114,9.682,9.682,0,0,0-.411,1.577c-.074.486-.091.617-.112.9-.031.4-.028,2.311,0,2.671s.1.96.117,1.014a1.188,1.188,0,0,1,.029.157c.034.254.071.468.114.663.026.114.052.249.06.3.017.1.034.166.123.508a11.178,11.178,0,0,0,.446,1.351c.023.048.063.143.089.206a10.584,10.584,0,0,0,.62,1.228,1.825,1.825,0,0,1,.195.3,1.994,1.994,0,0,0,.248.34.127.127,0,0,1,.037.057.618.618,0,0,0,.1.129c.052.057.092.106.083.106a3.605,3.605,0,0,0,.477.508,3.881,3.881,0,0,0,.583.531c.063.049.12.091.128.1a1.54,1.54,0,0,0,.354.237c.009-.009.022.006.034.031a.068.068,0,0,0,.055.046.131.131,0,0,1,.077.037,1.646,1.646,0,0,0,.337.2c.1.051.212.111.243.128a6.9,6.9,0,0,0,.66.291c.06.02.152.054.2.077a4.188,4.188,0,0,0,.522.16c.04.009.143.034.229.06s.274.063.414.088.277.049.3.057c.063.017.486.069.8.091a16.109,16.109,0,0,0,1.9-.017,10.85,10.85,0,0,0,3.285-.814,6.4,6.4,0,0,0,1.559-.98c.183-.169.191-.171.251-.031.111.263.343.788.422.965.046.1.155.343.238.534l.151.351h6.9v-26.072l-.089-.017c-.052-.009-.605-.017-1.237-.017-1.377,0-4.453-.023-5.493-.043l-.751-.017Zm-1.6,9.074c.614.071.9.114,1.2.174.2.04.391.08.431.086.072.014.074.026.134.417a14.607,14.607,0,0,1,.183,3.01,9.683,9.683,0,0,1-.206,1.56,6.715,6.715,0,0,1-.243.777c-.02.046-.072.169-.115.271a4.6,4.6,0,0,1-.508.854,3.69,3.69,0,0,1-.586.6.042.042,0,0,0-.04.023,2.552,2.552,0,0,1-.437.289,3.746,3.746,0,0,1-1.58.308,3.81,3.81,0,0,1-2.391-.6,3.065,3.065,0,0,1-.7-.665l-.183-.243a4.388,4.388,0,0,1-.346-.7,5.1,5.1,0,0,1-.328-1.845,5.448,5.448,0,0,1,.029-.557c.011-.094.028-.234.037-.311a6.143,6.143,0,0,1,.22-.9,3.4,3.4,0,0,1,.866-1.36,4.678,4.678,0,0,1,3.2-1.222C2512.585-905.238,2513.6-905.218,2513.75-905.2Z" transform="translate(-2429.091 -2.137)" fill="#d0383f"/>
    <path id="Path_568" data-name="Path 568" d="M0-902.044v13.053L3.7-889l3.7-.009,0-7.883c0-4.336.009-7.932.017-7.992l.014-.106.094.12a2.237,2.237,0,0,1,.129.194.528.528,0,0,0,.077.114c.034.037.357.5.543.771.037.054.08.12.1.143l.114.171c.134.211.334.5.374.543a1.545,1.545,0,0,1,.109.157,2.155,2.155,0,0,0,.126.189c.034.04.077.1.1.128s.091.137.16.24.166.251.214.331a1.168,1.168,0,0,0,.146.2.164.164,0,0,1,.057.086.231.231,0,0,0,.071.1c.04.037.066.071.057.08a.39.39,0,0,0,.083.131.981.981,0,0,1,.111.16,3.986,3.986,0,0,0,.254.374c.02.023.14.2.266.386s.243.354.257.371c.034.04.006,0,.463.668.2.291.426.623.506.737s.16.231.174.257a.274.274,0,0,0,.046.063c.009.009.043.063.08.123a1.108,1.108,0,0,0,.1.143,2.351,2.351,0,0,1,.154.22c.146.228.24.363.277.408a1.6,1.6,0,0,1,.1.143,1.59,1.59,0,0,0,.1.143,1.264,1.264,0,0,1,.163.234.283.283,0,0,0,.057.077.209.209,0,0,1,.057.1.074.074,0,0,0,.043.051.068.068,0,0,1,.043.057c0,.023.009.046.023.051a2.064,2.064,0,0,1,.186.251,3.5,3.5,0,0,0,.317.448c.031.037.046.066.034.066s.02.051.069.114c.077.1.311.434.414.6a.579.579,0,0,0,.043.06c.014.011.251.36.328.48.017.023.049.066.071.091a.932.932,0,0,1,.091.131,1.386,1.386,0,0,0,.16.234.139.139,0,0,1,.034.063.123.123,0,0,0,.037.063c.017.02.106.14.191.266s.166.24.177.257.077.111.146.214a1.381,1.381,0,0,0,.149.206.079.079,0,0,1,.029.051.072.072,0,0,0,.031.051.6.6,0,0,1,.1.143c.037.066.077.12.091.12s.023.017.023.04.009.046.023.051a.866.866,0,0,1,.177.246.042.042,0,0,0,.023.04.868.868,0,0,1,.177.246.238.238,0,0,0,.06.094c.034.037.146.2.248.354s.209.306.231.329a.619.619,0,0,1,.08.137.243.243,0,0,0,.08.111.064.064,0,0,1,.043.051.176.176,0,0,0,.057.086.169.169,0,0,1,.057.089.049.049,0,0,0,.023.046.7.7,0,0,1,.106.137,1.76,1.76,0,0,0,.123.166.139.139,0,0,1,.034.063.124.124,0,0,0,.037.063,2.3,2.3,0,0,1,.248.36.528.528,0,0,0,.08.12c.043.054.117.16.166.234a.4.4,0,0,0,.106.137c.011,0,.02.02.02.043s.011.043.026.043.04.037.06.083a.182.182,0,0,0,.077.1.033.033,0,0,1,.023.046c-.009.014-.006.029.011.029s.037.026.046.057c.017.057.043.057,4.773.057h4.753l-.006-13-.009-13-3.4-.009-3.408-.006v7.969c0,5.293-.009,7.969-.029,7.969a.026.026,0,0,1-.029-.023.319.319,0,0,0-.066-.1c-.034-.043-.114-.157-.177-.254-.149-.229-.18-.274-.306-.46a.9.9,0,0,1-.109-.183.285.285,0,0,0-.057-.1,6.827,6.827,0,0,1-.463-.708c-.017-.034-.043-.063-.057-.063s-.023-.02-.023-.043a.069.069,0,0,0-.043-.06c-.023-.011-.043-.031-.043-.046a.6.6,0,0,0-.083-.146c-.046-.066-.149-.223-.229-.348s-.171-.263-.2-.306-.057-.083-.051-.089-.017-.04-.046-.074a.711.711,0,0,1-.086-.117c-.017-.031-.094-.149-.174-.263a3.829,3.829,0,0,1-.251-.394c-.029-.051-.114-.177-.189-.283s-.189-.28-.257-.388a.983.983,0,0,0-.151-.208.047.047,0,0,1-.023-.037.135.135,0,0,0-.029-.063c-.017-.02-.066-.091-.111-.163s-.157-.243-.248-.383-.191-.294-.22-.34a.9.9,0,0,0-.091-.126.14.14,0,0,1-.043-.066,2.4,2.4,0,0,0-.2-.311,2.124,2.124,0,0,1-.18-.288c.011,0-.009-.026-.043-.057a.2.2,0,0,1-.063-.1c0-.023-.011-.043-.023-.043s-.04-.034-.06-.074a.759.759,0,0,0-.091-.151c-.1-.131-.911-1.377-.911-1.4s-.02-.034-.046-.043-.037-.029-.026-.043a.037.037,0,0,0-.011-.046,2.023,2.023,0,0,1-.194-.266c-.209-.317-.211-.323-.277-.437a.383.383,0,0,0-.091-.12.074.074,0,0,1-.04-.051.863.863,0,0,0-.109-.191c-.06-.091-.149-.22-.194-.291a.819.819,0,0,0-.111-.148c-.014-.011-.017-.023-.006-.023s.009-.017-.009-.037a1.889,1.889,0,0,1-.12-.177c-.051-.08-.1-.148-.109-.157a2.7,2.7,0,0,1-.171-.257c-.083-.134-.174-.269-.2-.3a.864.864,0,0,1-.086-.137c-.02-.043-.049-.077-.063-.077s-.023-.02-.023-.043-.011-.043-.029-.043-.029-.017-.029-.04a.829.829,0,0,0-.12-.208,2.087,2.087,0,0,1-.214-.323.2.2,0,0,0-.037-.057,1.482,1.482,0,0,1-.117-.18.613.613,0,0,0-.117-.163.023.023,0,0,1-.023-.026c0-.023-.634-1-.837-1.288a.36.36,0,0,1-.066-.114.143.143,0,0,0-.034-.057c-.02-.023-.066-.091-.106-.149s-.094-.143-.123-.186-.12-.183-.2-.309-.163-.248-.183-.274a.971.971,0,0,1-.091-.143.989.989,0,0,0-.071-.111c-.009-.009-.089-.123-.177-.257s-.194-.3-.243-.368-.111-.171-.146-.229a1.172,1.172,0,0,0-.086-.131c-.011-.017-.046-.068-.071-.114-.043-.08-.063-.086-.257-.1-.114-.009-.734-.017-1.38-.02-3.179-.011-7.378-.037-8.146-.051L0-915.1Z" transform="translate(0 -4.08)" fill="#d0383f"/>
    <path id="Path_569" data-name="Path 569" d="M3967.153-748.752c-.671.034-1.494.083-1.656.1-.077.006-.369.031-.643.057s-.537.046-.586.051c-.257.029-.491.054-.529.06s-.114.017-.2.026c-.451.051-.689.08-.843.1-.094.014-.229.034-.3.043l-.343.043c-.2.026-.514.074-.957.146-.094.017-.2.034-.229.037-.143.023-.9.157-1.057.188-.077.017-.175.034-.214.043l-.271.054c-.108.023-.334.068-.5.1-.269.051-.437.091-1.126.251-.174.04-.2.054-.231.134a1.11,1.11,0,0,0-.051.26c-.012.094-.032.274-.049.4s-.037.28-.043.343c-.011.106-.026.206-.1.643-.014.086-.046.323-.071.528s-.052.4-.057.443-.031.22-.055.4-.051.374-.06.428-.02.137-.026.186c-.02.163-.1.771-.131.957-.04.263-.054.363-.075.543-.009.086-.025.214-.04.286-.054.277-.06.457-.017.457.023,0,.245-.077.5-.171s.472-.171.494-.171a.112.112,0,0,0,.068-.026,2.1,2.1,0,0,1,.229-.089c.111-.034.257-.086.328-.114a29.728,29.728,0,0,1,2.916-.84c.243-.057.488-.108.543-.117s.117-.023.14-.029c.129-.037,1.208-.186,1.48-.2a8.475,8.475,0,0,1,1.89.06c.1.023.217.049.257.054a2.485,2.485,0,0,1,1.094.566.637.637,0,0,1,.166.646.881.881,0,0,1-.26.386,1.206,1.206,0,0,0-.142.111,1.487,1.487,0,0,1-.38.228,6.925,6.925,0,0,1-.965.334c-.069.014-.152.034-.183.04a5.6,5.6,0,0,1-.643.117c-.214.02-.828.1-.9.111-.052.011-.194.034-.414.066-.04.006-.211.037-.386.072s-.377.071-.451.083-.163.034-.194.043a.78.78,0,0,1-.135.029c-.1.014-.656.149-.905.22-.109.031-.211.06-.228.063s-.075.02-.128.037l-.314.094c-.117.034-.291.091-.386.128s-.306.114-.472.174-.305.114-.313.123a.1.1,0,0,1-.043.023,2.671,2.671,0,0,0-.257.109c-.125.057-.229.1-.229.1s-.148.071-.328.166a8.241,8.241,0,0,0-.926.534.37.37,0,0,1-.123.071.182.182,0,0,0-.08.057.171.171,0,0,1-.083.057.28.28,0,0,0-.109.071.45.45,0,0,1-.091.071c-.014,0-.04.02-.188.143-.026.023-.092.074-.146.114s-.14.117-.2.171a8.845,8.845,0,0,0-.639.643c-.063.071-.135.154-.161.18s-.074.094-.111.148a.519.519,0,0,1-.1.12.309.309,0,0,0-.068.109c-.02.046-.046.086-.06.086s-.026.017-.026.04-.008.046-.023.051a4.5,4.5,0,0,0-.491.894c0,.023-.014.043-.028.043s-.026.009-.023.02a.83.83,0,0,1-.083.237c-.009.023-.02.048-.022.057s-.029.1-.063.2a4.337,4.337,0,0,0-.166.6c-.009.054-.02.131-.029.171a8.607,8.607,0,0,0-.1.948,3.875,3.875,0,0,0,.026.4c.014.114.043.348.06.523a4.967,4.967,0,0,0,.106.714c.023.109.049.229.054.266a5.666,5.666,0,0,0,.585,1.394.585.585,0,0,1,.083.148.048.048,0,0,0,.023.04,1.257,1.257,0,0,1,.151.18,5.31,5.31,0,0,0,.726.743c.063.046.129.1.143.111a3.213,3.213,0,0,0,.5.32.87.87,0,0,1,.175.1c.008.017.025.029.034.026s.246.1.463.2c.031.014.185.066.343.114s.317.1.356.114a9.393,9.393,0,0,0,1.189.217,11.535,11.535,0,0,0,1.268.051,10.569,10.569,0,0,0,1.885-.117c.165-.023.383-.054.485-.066s.289-.046.414-.071.26-.049.3-.057a12.951,12.951,0,0,0,1.489-.377,2.909,2.909,0,0,0,.1-.58c.006-.054.032-.217.054-.357s.049-.323.057-.4a1.677,1.677,0,0,1,.031-.186c.005-.026.026-.14.04-.257.04-.283.077-.52.111-.728.018-.094.038-.237.049-.314.02-.177.026-.211.066-.443.017-.1.037-.257.048-.343a2,2,0,0,1,.043-.257.955.955,0,0,0,.025-.194v-.094l-.277.023a10.923,10.923,0,0,1-1.585-.014,2.478,2.478,0,0,1-.774-.274c-.163-.106-.391-.3-.351-.3.014,0,.005-.023-.02-.051a.8.8,0,0,1-.134-.463,1.527,1.527,0,0,1,.174-.617,2.71,2.71,0,0,1,.6-.625,1.443,1.443,0,0,0,.143-.1,1.178,1.178,0,0,1,.177-.094,1,1,0,0,0,.18-.1.37.37,0,0,1,.143-.06c.071-.02.128-.049.128-.06s.029-.026.066-.026a.162.162,0,0,0,.089-.02,7.878,7.878,0,0,1,1.231-.337c.063-.009.185-.029.271-.046.257-.046.931-.111,1.323-.129l.363-.017v8.117h3.95c2.171,0,3.976-.009,4.01-.017a.1.1,0,0,0,.071-.094c.006-.04,0-.954-.008-2.031s-.026-3.082-.038-4.456c-.014-2.254-.06-6.755-.085-9.069-.006-.488-.017-.917-.026-.957s-.037-.189-.06-.328a3.986,3.986,0,0,0-.174-.743,5.667,5.667,0,0,0-.448-.963,1.519,1.519,0,0,1-.106-.169,3.83,3.83,0,0,0-.566-.665,3.784,3.784,0,0,0-.422-.374c-.031-.023-.109-.083-.172-.131a1.764,1.764,0,0,0-.214-.143l-.213-.126a3.132,3.132,0,0,0-.489-.24.051.051,0,0,1-.037-.026,5.169,5.169,0,0,0-.746-.294,1.728,1.728,0,0,1-.2-.063,8.532,8.532,0,0,0-1.3-.263c-.076-.009-.231-.029-.343-.043C3969.366-748.786,3967.784-748.783,3967.153-748.752Z" transform="translate(-3841.063 -165.653)" fill="#d0383f"/>
    <path id="Path_570" data-name="Path 570" d="M1033.359-729.8a3.068,3.068,0,0,1-.383.031,16.337,16.337,0,0,0-1.928.231c-.04.009-.149.029-.243.043s-.286.054-.428.089-.308.071-.371.083a7.952,7.952,0,0,0-.785.211c-.054.02-.229.08-.386.128a7.436,7.436,0,0,0-.806.289.718.718,0,0,1-.154.057,13.832,13.832,0,0,0-1.36.663.656.656,0,0,1-.146.08.251.251,0,0,0-.091.057.231.231,0,0,1-.1.057.229.229,0,0,0-.091.054.95.95,0,0,1-.143.1.672.672,0,0,0-.129.083.688.688,0,0,1-.123.086,1.009,1.009,0,0,0-.163.109c-.043.037-.137.114-.214.169s-.163.123-.194.149-.089.077-.129.111a9.215,9.215,0,0,0-1.185,1.2c-.06.071-.114.134-.126.143a1.289,1.289,0,0,0-.111.163,1.249,1.249,0,0,1-.114.157,5.867,5.867,0,0,0-.448.694c-.06.109-.134.234-.163.277s-.046.08-.034.08,0,.023-.023.049a3.117,3.117,0,0,0-.223.451c0,.008-.04.1-.086.2s-.151.383-.229.623a7.634,7.634,0,0,0-.311,1.12,9.3,9.3,0,0,0-.223,1.508l-.017.277,3.739-.006,3.739-.009.049-.243c.026-.134.066-.32.091-.417a2.222,2.222,0,0,1,.149-.431.436.436,0,0,0,.04-.12,4.517,4.517,0,0,1,.4-.76,2.629,2.629,0,0,1,.254-.374c.026-.034.089-.109.134-.169a6.709,6.709,0,0,1,.491-.5,5.087,5.087,0,0,1,1.068-.708,5.321,5.321,0,0,1,1.468-.42,1.733,1.733,0,0,0,.22-.031,13.678,13.678,0,0,0,.051-2.813v-2.8h-.069a.37.37,0,0,1-.108-.014A.077.077,0,0,0,1033.359-729.8Z" transform="translate(-992.518 -184.083)" fill="#d0383f"/>
    <path id="Path_571" data-name="Path 571" d="M3331.872-729.439a16.423,16.423,0,0,0-1.957.226c-.071.014-.237.046-.371.074a7.082,7.082,0,0,0-.757.186.99.99,0,0,1-.157.043c-.085.014-.459.143-1.045.357a11.463,11.463,0,0,0-1.3.628,1.6,1.6,0,0,1-.214.126.408.408,0,0,0-.072.049,1.825,1.825,0,0,1-.214.14,1.2,1.2,0,0,0-.223.16.073.073,0,0,1-.054.04,2.435,2.435,0,0,0-.417.32.054.054,0,0,1-.049.023c-.023,0-.049.026-.057.06s-.025.051-.034.043-.069.04-.134.106-.2.191-.292.28a6.406,6.406,0,0,0-.754.854c-.023.034-.077.1-.12.154a.363.363,0,0,0-.08.12.2.2,0,0,1-.051.086,8.81,8.81,0,0,0-.891,1.579c-.028.077-.08.194-.112.263-.091.2-.42,1.208-.5,1.54-.12.5-.214.968-.263,1.314-.057.4-.06.431-.083.637-.012.091-.023.194-.032.229a14.452,14.452,0,0,0-.051,1.462,7.971,7.971,0,0,0,.1,1.385c.014.071.034.206.042.3a1.021,1.021,0,0,0,.029.186,1.225,1.225,0,0,1,.029.146c.02.137.143.671.189.814.014.046.052.183.085.3A12.79,12.79,0,0,0,3322.5-714a8.038,8.038,0,0,0,.389.788,1.3,1.3,0,0,1,.083.143,2.959,2.959,0,0,0,.157.257.439.439,0,0,1,.08.148c0,.014.006.023.02.023s.046.046.071.1.06.1.074.1.031.023.04.049a.57.57,0,0,0,.1.151.629.629,0,0,1,.086.117,1.355,1.355,0,0,0,.231.274.721.721,0,0,1,.111.14,9.9,9.9,0,0,0,.946.908,4.829,4.829,0,0,0,.594.417.065.065,0,0,1,.049.043c.011.023.029.043.043.043a.721.721,0,0,1,.146.083c.069.046.206.123.308.174a1.7,1.7,0,0,1,.229.131,1.491,1.491,0,0,0,.223.109c.1.043.26.111.357.157a9.914,9.914,0,0,0,.991.36c.023.006.109.031.185.057s.209.057.286.074l.243.054a9.748,9.748,0,0,0,1.276.217,1.265,1.265,0,0,1,.211.028,16.4,16.4,0,0,0,1.654.049,18.387,18.387,0,0,0,1.942-.109l.228-.031c.2-.02.708-.094.786-.109l.2-.031c.192-.026,1.274-.234,1.557-.3l.3-.069.242-.057c.023-.009.172-.043.329-.083.428-.1.4-.074.428-.374.009-.094.023-.191.029-.214s.026-.169.042-.32.035-.32.04-.371.02-.154.031-.226.02-.163.029-.2.017-.143.029-.237.023-.194.028-.228.02-.117.029-.188.028-.22.04-.328.046-.349.072-.528c.043-.326.063-.494.091-.743.006-.071.026-.194.04-.271s.034-.214.043-.3.029-.254.043-.371c.046-.323.086-.657.1-.8.009-.071.026-.206.04-.3.052-.323.057-.414.02-.414a.092.092,0,0,0-.054.017,10.41,10.41,0,0,1-1.083.368c-.091.023-.24.063-.329.089l-.208.054a15.26,15.26,0,0,1-1.657.317,13.219,13.219,0,0,1-2.028.049,4.86,4.86,0,0,1-1.771-.5,3.721,3.721,0,0,1-.785-.551l-.129-.154c-.054-.069-.128-.157-.166-.2-.1-.123-.12-.146-.12-.166a.441.441,0,0,0-.063-.1,2.891,2.891,0,0,1-.282-.565c-.032-.086-.069-.183-.08-.214a2,2,0,0,1-.1-.337c-.006-.034-.017-.094-.026-.134a5.711,5.711,0,0,1-.106-1.642,3.423,3.423,0,0,1,.117-.543c.015-.031.04-.109.06-.171a4.364,4.364,0,0,1,.708-1.217c.057-.057.123-.126.148-.157a4.6,4.6,0,0,1,.4-.351l.105-.089a.145.145,0,0,1,.066-.029.031.031,0,0,0,.029-.029c0-.017.02-.029.043-.029s.043-.014.043-.029.02-.029.043-.029.043-.009.043-.023.029-.034.066-.051l.343-.18a7.894,7.894,0,0,1,2.962-.74c.4-.034,1.78-.023,2.257.017a7.738,7.738,0,0,1,.8.077c.023.006.16.02.3.031a1.644,1.644,0,0,1,.28.031.931.931,0,0,0,.157.029c.074.006.149.014.163.017s.026-.02.023-.051-.02-.308-.037-.614c-.06-1.2-.085-1.648-.1-1.771-.008-.071-.02-.314-.031-.543s-.023-.46-.029-.514-.02-.26-.029-.451-.02-.4-.029-.457-.02-.306-.029-.548-.025-.494-.037-.557l-.02-.114-.257-.066-.314-.077c-.031-.006-.155-.031-.271-.057s-.246-.054-.285-.06-.194-.037-.343-.068c-.229-.046-.7-.12-.974-.157l-.286-.04c-.226-.031-1-.109-1.325-.129C3333.78-729.453,3332.3-729.462,3331.872-729.439Z" transform="translate(-3226.719 -184.426)" fill="#d0383f"/>
    <path id="Path_572" data-name="Path 572" d="M1478.006-726.349l.009,2.851.143.04a5.9,5.9,0,0,1,.968.351,6.133,6.133,0,0,1,.731.448,4.5,4.5,0,0,1,.554.488c.066.068.151.16.2.206a.3.3,0,0,1,.077.106c0,.014.02.034.043.046a.065.065,0,0,1,.043.051.242.242,0,0,0,.066.109,2.641,2.641,0,0,1,.32.486c.043.086.1.189.12.229a.358.358,0,0,1,.037.106c0,.02.009.037.023.037s.034.043.054.091.066.183.109.294a2.819,2.819,0,0,1,.157.514c.011.063.029.14.037.171s.023.117.031.191l.02.137h4.039c2.222,0,4.044-.008,4.05-.023a9.328,9.328,0,0,0-.108-1.191c-.009-.049-.029-.169-.046-.271-.026-.148-.123-.563-.269-1.142-.034-.14-.286-.82-.406-1.1a10.282,10.282,0,0,0-.637-1.214.668.668,0,0,1-.057-.1.344.344,0,0,0-.077-.109.072.072,0,0,1-.037-.051.3.3,0,0,0-.071-.106.293.293,0,0,1-.072-.1,1.676,1.676,0,0,0-.223-.3.88.88,0,0,1-.086-.114,3.534,3.534,0,0,0-.386-.443l-.26-.274c-.054-.054-.183-.177-.289-.271s-.228-.206-.271-.251a.378.378,0,0,0-.1-.077.208.208,0,0,1-.068-.051.618.618,0,0,0-.2-.149.115.115,0,0,1-.063-.046,1.86,1.86,0,0,0-.351-.254,1.1,1.1,0,0,1-.143-.106.193.193,0,0,0-.094-.051c-.02,0-.037-.011-.037-.026s-.023-.031-.048-.04a1.163,1.163,0,0,1-.237-.134,4.38,4.38,0,0,0-.529-.283,10.711,10.711,0,0,0-1.6-.677,8.154,8.154,0,0,0-.828-.254c-.417-.109-1.06-.251-1.285-.286-.1-.014-.211-.031-.328-.054l-.114-.026a1.345,1.345,0,0,0-.214-.031c-.077-.009-.18-.023-.229-.029-.22-.04-1.237-.129-1.679-.149L1478-729.2Z" transform="translate(-1435.784 -184.67)" fill="#d0383f"/>
    <path id="Path_573" data-name="Path 573" d="M1943.453-725.814a2.338,2.338,0,0,1-.357.031,9.406,9.406,0,0,0-3.242.746,6.708,6.708,0,0,0-.728.386,3.109,3.109,0,0,0-.545.391.3.3,0,0,1-.083.066,3.542,3.542,0,0,0-.32.3,2.887,2.887,0,0,0-.277.3c.011,0-.011.029-.049.063a1.5,1.5,0,0,0-.163.2.435.435,0,0,1-.12.137,6.343,6.343,0,0,1-.029-.914v-.914h-.277c-1.071,0-7.043.06-7.144.074l-.12.014.006,9.831.009,9.831h7.969L1938-709.8c.009-2.491.026-4.584.034-4.656s.031-.194.046-.271.043-.22.06-.314a8.747,8.747,0,0,1,.312-1.2.85.85,0,0,0,.057-.151,8.048,8.048,0,0,1,.411-.9c.026-.043.072-.111.1-.157l.08-.123a4.367,4.367,0,0,1,1.074-1.125c.025-.017.1-.066.171-.114s.132-.086.14-.089l.08-.026c.034-.011.063-.031.063-.046s.014-.026.034-.026a.567.567,0,0,0,.149-.054,4.522,4.522,0,0,1,1.117-.309c.049-.008.843-.02,1.768-.028l1.682-.012-.017-.237c-.011-.131-.026-.257-.031-.277a1.446,1.446,0,0,1-.029-.211,1.175,1.175,0,0,0-.029-.214c-.005-.023-.02-.14-.031-.257-.017-.234-.034-.383-.057-.557-.009-.063-.023-.186-.031-.271s-.029-.26-.046-.386c-.04-.32-.043-.348-.063-.557-.011-.1-.031-.263-.046-.357s-.04-.3-.057-.457-.043-.383-.057-.5c-.037-.286-.051-.423-.074-.637a2.861,2.861,0,0,0-.04-.291,2.135,2.135,0,0,1-.026-.254.73.73,0,0,0-.017-.16c-.006-.011-.026-.157-.043-.326-.034-.334-.06-.434-.12-.44C1944.4-725.806,1943.464-725.826,1943.453-725.814Z" transform="translate(-1874.874 -187.956)" fill="#d0383f"/>
    <path id="Path_574" data-name="Path 574" d="M1020.817-342.794c.009.114.023.3.031.4a1.515,1.515,0,0,0,.026.214,1.313,1.313,0,0,1,.029.206,6.9,6.9,0,0,0,.131.728c.126.531.188.774.249.957.111.346.237.691.3.82.028.069.054.129.054.137a7.5,7.5,0,0,0,.428.871.387.387,0,0,1,.068.129c.031.071.069.128.083.128s.02.009.011.02,0,.04.02.063a.635.635,0,0,1,.08.117.9.9,0,0,0,.2.286c.014,0,.026.017.026.04a.137.137,0,0,0,.037.08c.034.034.157.194.291.383.031.043.071.091.086.109s.117.134.229.26a10.224,10.224,0,0,0,.843.843c.08.071.163.143.18.157a5.786,5.786,0,0,0,.474.354,1.32,1.32,0,0,1,.112.074c.077.063.52.357.537.357a.512.512,0,0,1,.105.069,10.594,10.594,0,0,0,1.348.663,13.422,13.422,0,0,0,1.557.517c.211.054.406.1.428.111.123.031.717.148.828.163.071.009.16.023.2.031.105.023.234.04.642.089l.457.057c.16.026.968.071,1.385.077l.414.009.009-2.716.006-2.719-.163-.017-.294-.034a5.074,5.074,0,0,1-.728-.174c-.077-.029-.149-.049-.157-.051a1.927,1.927,0,0,1-.377-.168c-.011-.017-.023-.02-.023-.006s-.023.009-.048-.014a1.836,1.836,0,0,0-.326-.186.639.639,0,0,1-.177-.117.077.077,0,0,0-.054-.037.294.294,0,0,1-.106-.066c-.043-.034-.114-.089-.157-.12a2.092,2.092,0,0,1-.2-.171c-.066-.063-.151-.14-.189-.174a2.56,2.56,0,0,1-.311-.337.788.788,0,0,0-.114-.137.557.557,0,0,1-.114-.157c0-.02-.012-.037-.023-.037s-.046-.037-.234-.386a2.137,2.137,0,0,0-.137-.223c-.023-.026-.034-.049-.023-.049s-.006-.049-.037-.109a4.869,4.869,0,0,1-.4-1.334.564.564,0,0,0-.017-.14,32,32,0,0,0-3.759-.046H1020.8Z" transform="translate(-991.643 -559.839)" fill="#d0383f"/>
    <path id="Path_575" data-name="Path 575" d="M1481.745-342.837c-.037.174-.04.183-.071.366a5.106,5.106,0,0,1-.894,1.919c-.029.031-.1.117-.151.183a4.81,4.81,0,0,1-.711.686c-.006-.006-.02,0-.029.017a1.654,1.654,0,0,1-.274.209.907.907,0,0,0-.137.077,4.831,4.831,0,0,1-.963.451l-.214.057a2.291,2.291,0,0,1-.277.069c-.014,0-.023,1.251-.023,2.776v2.776l.337-.02c.183-.009.469-.026.634-.031s.331-.02.371-.029.149-.02.243-.029c.308-.026.774-.091,1.228-.174.125-.026.268-.051.314-.057s.22-.049.383-.089.311-.074.328-.077.1-.029.188-.054.188-.051.229-.06c.083-.014.431-.117.557-.163.049-.017.183-.063.3-.1a4.3,4.3,0,0,0,.614-.246.12.12,0,0,1,.063-.023,1.437,1.437,0,0,0,.26-.1c.369-.171.82-.394.834-.408a1.584,1.584,0,0,1,.163-.089c.083-.04.151-.08.151-.094s.014-.02.034-.02a.366.366,0,0,0,.12-.069.65.65,0,0,1,.151-.086.144.144,0,0,0,.077-.063c.009-.023.029-.034.046-.026s.029,0,.029-.011.02-.031.043-.031.043-.014.043-.029.02-.029.043-.029a.069.069,0,0,0,.06-.043c.011-.023.029-.034.043-.026s.034-.006.043-.029a.071.071,0,0,1,.057-.046.068.068,0,0,0,.057-.043.073.073,0,0,1,.054-.043.067.067,0,0,0,.054-.046c.012-.026.026-.04.034-.031s.037,0,.192-.131c.034-.031.12-.1.191-.157.117-.1.4-.36.611-.565.049-.046.16-.169.246-.266s.183-.208.217-.243a2.45,2.45,0,0,0,.157-.189c.052-.071.1-.134.111-.143s.074-.1.146-.2a1.128,1.128,0,0,1,.148-.194.043.043,0,0,0,.02-.034.7.7,0,0,1,.086-.151.647.647,0,0,0,.086-.151.183.183,0,0,1,.046-.071,6.713,6.713,0,0,0,.583-1.18.072.072,0,0,1,.026-.057.18.18,0,0,0,.043-.091,1.539,1.539,0,0,1,.074-.194,2.37,2.37,0,0,0,.1-.288c.029-.094.083-.274.12-.4s.083-.274.094-.328.031-.131.04-.171c.086-.386.157-.743.174-.9.011-.08.023-.183.029-.228.011-.1.034-.323.057-.6.011-.111.026-.223.031-.251a28.375,28.375,0,0,0-4.01-.049h-4.025Z" transform="translate(-1435.784 -559.839)" fill="#d0383f"/>
  </g>
</svg>
