<svg height="50" viewBox="0 0 103 71" width="75" xmlns="http://www.w3.org/2000/svg">
<g fill="none" fill-rule="evenodd">
<path d="M98.5441655 27.1500019l-6.0357447 6.9258874h-1.2834046v-6.903347h-3.0924861v16.8774592h3.0924861v-6.9031072h1.3271104l5.9920389 6.875771h3.7635265l-5.4653959-6.3794033-1.7583731-2.0569284 1.7583731-2.0566885 5.4653959-6.3796432zM45.1770066 29.880331h-4.0758422v5.0708966h4.1232639c1.7504878 0 2.7567462-.9090345 2.7567462-2.5113104 0-1.3635517-1.0546478-2.5595862-2.8041679-2.5595862zm2.5404454 14.2556207L44.8890895 37.7254h-3.7646981v6.4105517h-3.1160378V27.1776069h7.168653c4.0516475 0 5.8972206 2.5354483 5.8972206 5.2623103 0 2.2723449-1.2465119 4.0662759-3.1162797 4.7597587l3.1162797 6.9362758H47.717452zM71.8909029 44.1498793V27.1536379h12.134377v2.8048276h-9.0345497v4.3083793h7.5460906v2.7806897h-7.5460906v4.2977586h9.0345497v2.8045862zM3.05172818 33.6121759v10.5398275H.00004838V27.1555207l1.4122457.008931 9.16036222 10.8311724V27.1555207h3.0516798v16.9964827h-1.6387083zM62.3332877 30.0237828V44.1118862h-3.092085V30.0237828h-5.6175296v-2.8702414h14.1427805v2.8702414z" fill="#002D73"></path>
<path d="M25.3382814 29.9332655c3.0819232 0 5.5800278 2.4924828 5.5800278 5.5669311 0 3.0746896-2.4981046 5.566931-5.5800278 5.566931-3.0816812 0-5.5797859-2.4922414-5.5797859-5.566931 0-3.0744483 2.4981047-5.5669311 5.5797859-5.5669311zm2.7981192 23.6365862c6.4055516 10.5391035 17.5953667 16.8299311 29.9329793 16.8299311 15.1780725 0 28.1234564-9.6957242 32.9546577-23.2028276h-3.3095955c-4.6821618 11.7686896-16.201509 20.1158276-29.6450622 20.1158276-9.1310866 0-17.5731076-3.7816897-23.5508966-10.346 2.455038.8918965 5.0833103 1.3864827 7.8001352 1.3864827 8.3486294 0 15.6648702-4.4807241 19.6683702-11.1563103h-3.710502c-3.6098519 4.8893793-9.417794 8.0693103-15.9578682 8.0693103-7.6457729 0-14.520702-4.4211034-17.7954571-11.0913793.2685613.0248621.5397841.0412759.81512.0412759 4.8249107 0 8.7364708-3.9023793 8.7364708-8.7159655 0-4.8135863-3.9115601-8.7157242-8.7364708-8.7157242-.2763037 0-.5484942.015931-.8182653.0410345 3.2788681-6.6656897 10.1746047-11.0913793 17.7986024-11.0913793 6.6445954 0 12.5306864 3.2837241 16.1272312 8.3063448h3.6780811c-3.9718049-6.8052069-11.3591782-11.3933448-19.8053123-11.3933448-2.6038356 0-5.1321836.4521034-7.5039919 1.2795517C40.905405 7.50212759 49.3525069 3.68736897 58.0693799 3.68736897c13.5342834 0 25.1179885 8.45913793 29.7384538 20.35310343h3.2967723C86.340666 10.4102655 73.3355212.60036897 58.0693799.60036897c-11.9432387 0-23.4226646 6.49310344-29.9588677 16.94458623l-.0890365.1436207c-3.3497588 2.6720689-5.9519007 6.2715172-7.3818085 10.4717586-2.4255205 1.5486896-4.0376146 4.2535862-4.0376146 7.3398621 0 3.0848275 1.6106424 5.789 4.0342273 7.337931 1.4182944 4.1727241 3.9848701 7.7531034 7.2937397 10.4184138l.206381.3133103z" fill="#2374CC"></path>
</g>
</svg>