<svg width="171.02" height="22" xmlns="http://www.w3.org/2000/svg">

 <g>
  <title>Layer 1</title>
  <g data-name="Group 1" id="Group_1">
   <path fill="#000000" d="m102.86592,8.6698a2.2,2.2 0 1 1 -2.2,2.2a2.2,2.2 0 0 1 2.2,-2.2m0,-0.6a2.8,2.8 0 1 0 2.8,2.8a2.8,2.8 0 0 0 -2.8,-2.799l0,-0.001z" data-name="Path 11" id="Path_11"/>
  </g>
  <circle fill="#4bef8f" r="2.796" cy="2.796" cx="102.86192" data-name="Ellipse 1" id="Ellipse_1"/>
  <circle fill="#4bef8f" r="2.796" cy="18.93711" cx="102.86192" data-name="Ellipse 2" id="Ellipse_2"/>
  <g id="svg_1">
   <path fill="#000000" d="m0.00045,0.76813l5.281,0l3.514,12.875l0.088,0l3.219,-12.875l5.2,0l3.189,12.845l0.09,0l3.544,-12.845l5.256,0l-6.585,20.966l-4.515,0l-3.486,-13.761l-0.059,0l-3.632,13.761l-4.523,0l-6.581,-20.966z" data-name="Path 1" id="Path_1"/>
   <path fill="#000000" d="m30.04713,19.93312a7.625,7.625 0 0 1 -1.919,-5.4a7.813,7.813 0 0 1 1.875,-5.389a6.033,6.033 0 0 1 4.71,-2.111a4.992,4.992 0 0 1 3.987,1.8l0.059,-0.03l0,-1.509l4.636,0l0,14.44l-4.4,0l0,-1.506l-0.059,-0.03a4.782,4.782 0 0 1 -3.987,1.8a6.4,6.4 0 0 1 -4.902,-2.065zm8.032,-2.953a3.439,3.439 0 0 0 0.886,-2.451a3.541,3.541 0 0 0 -0.871,-2.451a2.792,2.792 0 0 0 -2.171,-0.975a2.9,2.9 0 0 0 -2.23,0.945a3.972,3.972 0 0 0 -0.015,4.946a2.907,2.907 0 0 0 2.244,0.93a2.843,2.843 0 0 0 2.157,-0.945l0,0.001z" data-name="Path 2" id="Path_2"/>
   <path fill="#000000" d="m48.09078,20.77793a5.054,5.054 0 0 1 -1.152,-3.588l0,-6.175l-1.624,0l0,-3.721l1.624,0l0,-4.636l4.636,-0.473l0,5.109l3.484,0l0,3.721l-3.484,0l0,5.315q0,1.624 1.092,1.624a3.247,3.247 0 0 0 1.418,-0.325l1.152,3.4a8.149,8.149 0 0 1 -4.046,0.975a4.051,4.051 0 0 1 -3.1,-1.226z" data-name="Path 3" id="Path_3"/>
   <path fill="#000000" d="m70.47542,15.73912l-9.833,0a2.708,2.708 0 0 0 1.152,1.86a3.968,3.968 0 0 0 2.3,0.65a4.543,4.543 0 0 0 3.366,-1.565l2.658,2.717q-2.1,2.6 -6.5,2.6a7.442,7.442 0 0 1 -5.433,-2.082a7.474,7.474 0 0 1 5.315,-12.89a6.733,6.733 0 0 1 5.064,2.067a7.263,7.263 0 0 1 1.993,5.256q0.006,0.501 -0.082,1.387zm-8.844,-4.444a2.745,2.745 0 0 0 -0.96,1.7l5.4,0a3.122,3.122 0 0 0 -0.915,-1.683a2.443,2.443 0 0 0 -1.713,-0.62a2.807,2.807 0 0 0 -1.813,0.603l0.001,0z" data-name="Path 4" id="Path_4"/>
   <path fill="#000000" d="m73.01534,7.29412l4.607,0l0,2.008l0.059,0a4.923,4.923 0 0 1 4.164,-2.274l0.177,0l0,4.991q-0.886,-0.059 -1.092,-0.059a3.221,3.221 0 0 0 -2.451,0.9a3.307,3.307 0 0 0 -0.857,2.377l0,6.5l-4.607,0l0,-14.443z" data-name="Path 5" id="Path_5"/>
   <path fill="#000000" d="m84.33086,0.76813l5.05,0l0,16.566l8.711,0l0,4.4l-13.761,0l0,-20.966z" data-name="Path 6" id="Path_6"/>
  </g>
  <g id="svg_2">
   <path fill="#000000" d="m108.4518,7.29412l4.607,0l0,1.68l0.059,0a5.472,5.472 0 0 1 4.341,-1.949q5.168,0 5.168,6.054l0,8.652l-4.607,0l0,-7.53a3.839,3.839 0 0 0 -0.561,-2.392a2.13,2.13 0 0 0 -1.742,-0.679a2.412,2.412 0 0 0 -1.949,0.841a3.792,3.792 0 0 0 -0.709,2.5l0,7.264l-4.607,0l0,-14.441z" data-name="Path 7" id="Path_7"/>
   <path fill="#000000" d="m125.23998,-0.00019l4.548,0l0,12.491l0.059,0l4.223,-5.2l5.345,0l-4.872,5.758l5.02,8.682l-5.109,0l-3.219,-5.67l-1.447,1.595l0,4.077l-4.548,0l0,-21.733z" data-name="Path 8" id="Path_8"/>
   <path fill="#000000" d="m154.03289,15.73912l-9.834,0a2.709,2.709 0 0 0 1.152,1.86a3.967,3.967 0 0 0 2.3,0.65a4.543,4.543 0 0 0 3.367,-1.565l2.658,2.717q-2.1,2.6 -6.5,2.6a7.442,7.442 0 0 1 -5.434,-2.082a7.474,7.474 0 0 1 5.315,-12.89a6.733,6.733 0 0 1 5.065,2.067a7.264,7.264 0 0 1 1.993,5.256q0.006,0.501 -0.082,1.387zm-8.844,-4.444a2.743,2.743 0 0 0 -0.96,1.7l5.4,0a3.126,3.126 0 0 0 -0.916,-1.683a2.443,2.443 0 0 0 -1.713,-0.62a2.806,2.806 0 0 0 -1.812,0.603l0.001,0z" data-name="Path 9" id="Path_9"/>
   <path fill="#000000" d="m157.53959,19.93281a7.659,7.659 0 0 1 -1.905,-5.4a7.813,7.813 0 0 1 1.875,-5.389a6.033,6.033 0 0 1 4.71,-2.111a5.208,5.208 0 0 1 4.134,1.8l0.03,0l0,-8.83l4.636,0l0,21.73l-4.4,0l0,-1.534l-0.059,0a4.963,4.963 0 0 1 -4.1,1.8a6.382,6.382 0 0 1 -4.921,-2.066zm8.121,-2.938a3.394,3.394 0 0 0 0.9,-2.466a3.5,3.5 0 0 0 -0.886,-2.451a3.1,3.1 0 0 0 -4.488,-0.03a3.9,3.9 0 0 0 -0.015,4.931a2.9,2.9 0 0 0 2.229,0.945a3.014,3.014 0 0 0 2.26,-0.929z" data-name="Path 10" id="Path_10"/>
  </g>
 </g>
</svg>