<svg xmlns="http://www.w3.org/2000/svg" width="171.02" height="22" viewBox="0 0 171.02 22">
  <g id="Group_398" data-name="Group 398" transform="translate(8235 6720)">
    <path id="Path_1" data-name="Path 1" d="M73.019,81.211H78.3l3.514,12.875h.088l3.219-12.875h5.2l3.189,12.845H93.6l3.544-12.845H102.4l-6.585,20.966H91.3L87.814,88.416h-.059l-3.632,13.761H79.6Z" transform="translate(-8308.019 -6800.443)" fill="#fff"/>
    <path id="Path_2" data-name="Path 2" d="M215.761,125.459a7.625,7.625,0,0,1-1.919-5.4,7.813,7.813,0,0,1,1.875-5.389,6.033,6.033,0,0,1,4.71-2.111,4.992,4.992,0,0,1,3.987,1.8l.059-.03V112.82h4.636v14.44h-4.4v-1.506l-.059-.03a4.782,4.782,0,0,1-3.987,1.8A6.4,6.4,0,0,1,215.761,125.459Zm8.032-2.953a3.439,3.439,0,0,0,.886-2.451,3.541,3.541,0,0,0-.871-2.451,2.792,2.792,0,0,0-2.171-.975,2.9,2.9,0,0,0-2.23.945,3.972,3.972,0,0,0-.015,4.946,2.907,2.907,0,0,0,2.244.93A2.843,2.843,0,0,0,223.793,122.505Z" transform="translate(-8420.714 -6825.526)" fill="#fff"/>
    <path id="Path_3" data-name="Path 3" d="M302.665,106.9a5.054,5.054,0,0,1-1.152-3.588V97.137h-1.624V93.416h1.624V88.78l4.636-.473v5.109h3.484v3.721h-3.484v5.315q0,1.624,1.092,1.624a3.247,3.247,0,0,0,1.418-.325l1.152,3.4a8.149,8.149,0,0,1-4.046.975A4.051,4.051,0,0,1,302.665,106.9Z" transform="translate(-8489.574 -6806.122)" fill="#fff"/>
    <path id="Path_4" data-name="Path 4" d="M368.118,121.265h-9.833a2.708,2.708,0,0,0,1.152,1.86,3.968,3.968,0,0,0,2.3.65,4.543,4.543,0,0,0,3.366-1.565l2.658,2.717q-2.1,2.6-6.5,2.6a7.442,7.442,0,0,1-5.433-2.082,7.474,7.474,0,0,1,5.315-12.89,6.733,6.733,0,0,1,5.064,2.067,7.263,7.263,0,0,1,1.993,5.256Q368.206,120.379,368.118,121.265Zm-8.844-4.444a2.745,2.745,0,0,0-.96,1.7h5.4a3.122,3.122,0,0,0-.915-1.683,2.443,2.443,0,0,0-1.713-.62A2.807,2.807,0,0,0,359.273,116.821Z" transform="translate(-8532.643 -6825.526)" fill="#fff"/>
    <path id="Path_5" data-name="Path 5" d="M438.571,112.82h4.607v2.008h.059a4.923,4.923,0,0,1,4.164-2.274h.177v4.991q-.886-.059-1.092-.059a3.221,3.221,0,0,0-2.451.9,3.307,3.307,0,0,0-.857,2.377v6.5h-4.607Z" transform="translate(-8600.556 -6825.526)" fill="#fff"/>
    <path id="Path_6" data-name="Path 6" d="M495.2,81.211h5.05V97.777h8.711v4.4H495.2Z" transform="translate(-8645.869 -6800.443)" fill="#fff"/>
    <path id="Path_7" data-name="Path 7" d="M615.985,112.82h4.607V114.5h.059a5.472,5.472,0,0,1,4.341-1.949q5.168,0,5.168,6.054v8.652h-4.607v-7.53a3.839,3.839,0,0,0-.561-2.392,2.13,2.13,0,0,0-1.742-.679,2.412,2.412,0,0,0-1.949.841,3.792,3.792,0,0,0-.709,2.5v7.264h-4.607Z" transform="translate(-8742.533 -6825.526)" fill="#fff"/>
    <path id="Path_8" data-name="Path 8" d="M700.031,77.367h4.548V89.858h.059l4.223-5.2h5.345l-4.872,5.758,5.02,8.682h-5.109l-3.219-5.67-1.447,1.595V99.1h-4.548Z" transform="translate(-8809.791 -6797.367)" fill="#fff"/>
    <path id="Path_9" data-name="Path 9" d="M786.445,121.265h-9.834a2.709,2.709,0,0,0,1.152,1.86,3.967,3.967,0,0,0,2.3.65,4.543,4.543,0,0,0,3.367-1.565l2.658,2.717q-2.1,2.6-6.5,2.6a7.442,7.442,0,0,1-5.434-2.082,7.474,7.474,0,0,1,5.315-12.89,6.733,6.733,0,0,1,5.065,2.067,7.264,7.264,0,0,1,1.993,5.256Q786.533,120.379,786.445,121.265Zm-8.844-4.444a2.743,2.743,0,0,0-.96,1.7h5.4a3.126,3.126,0,0,0-.916-1.683,2.443,2.443,0,0,0-1.713-.62A2.806,2.806,0,0,0,777.6,116.821Z" transform="translate(-8867.412 -6825.526)" fill="#fff"/>
    <path id="Path_10" data-name="Path 10" d="M854.106,97.3a7.659,7.659,0,0,1-1.905-5.4,7.813,7.813,0,0,1,1.875-5.389,6.033,6.033,0,0,1,4.71-2.111,5.208,5.208,0,0,1,4.134,1.8h.03v-8.83h4.636V99.1h-4.4V97.566h-.059a4.963,4.963,0,0,1-4.1,1.8A6.382,6.382,0,0,1,854.106,97.3Zm8.121-2.938a3.394,3.394,0,0,0,.9-2.466,3.5,3.5,0,0,0-.886-2.451,3.1,3.1,0,0,0-4.488-.03,3.9,3.9,0,0,0-.015,4.931,2.9,2.9,0,0,0,2.229.945A3.014,3.014,0,0,0,862.227,94.362Z" transform="translate(-8931.566 -6797.367)" fill="#fff"/>
    <g id="Group_1" data-name="Group 1" transform="translate(-8134.934 -6711.929)">
      <path id="Path_11" data-name="Path 11" d="M576.8,118.372a2.2,2.2,0,1,1-2.2,2.2,2.2,2.2,0,0,1,2.2-2.2m0-.6a2.8,2.8,0,1,0,2.8,2.8A2.8,2.8,0,0,0,576.8,117.773Z" transform="translate(-574 -117.773)" fill="#fff"/>
    </g>
    <circle id="Ellipse_1" data-name="Ellipse 1" cx="2.796" cy="2.796" r="2.796" transform="translate(-8134.934 -6720)" fill="#4bef8f"/>
    <circle id="Ellipse_2" data-name="Ellipse 2" cx="2.796" cy="2.796" r="2.796" transform="translate(-8134.934 -6703.859)" fill="#4bef8f"/>
  </g>
</svg>
