<?xml version="1.0" encoding="UTF-8" standalone="no"?>
<!-- Created with Inkscape (http://www.inkscape.org/) -->

<svg
   xmlns:dc="http://purl.org/dc/elements/1.1/"
   xmlns:cc="http://creativecommons.org/ns#"
   xmlns:rdf="http://www.w3.org/1999/02/22-rdf-syntax-ns#"
   xmlns:svg="http://www.w3.org/2000/svg"
   xmlns="http://www.w3.org/2000/svg"
   version="1.1"
   width="538.58264"
   height="246.25984"
   id="svg3454">
  <defs
     id="defs3456" />
  <metadata
     id="metadata3459">
    <rdf:RDF>
      <cc:Work
         rdf:about="">
        <dc:format>image/svg+xml</dc:format>
        <dc:type
           rdf:resource="http://purl.org/dc/dcmitype/StillImage" />
        <dc:title></dc:title>
      </cc:Work>
    </rdf:RDF>
  </metadata>
  <g
     transform="translate(-126.47262,-369.07945)"
     id="layer1">
    <g
       transform="matrix(4.7593537,0,0,-4.7593537,-2009.7224,4213.0143)"
       id="g3429">
      <g
         transform="translate(464.682,761.5836)"
         id="g3067">
        <path
           d="m 237.25,454.4375 c 0.86625,1.24625 2.30375,2.0625 3.9375,2.0625 1.6325,0 3.07125,-0.81 3.9375,-2.0625 l -1.90625,0 c -0.5675,0.42375 -1.26875,0.6875 -2.03125,0.6875 -0.76375,0 -1.46375,-0.2675 -2.03125,-0.6875 l -1.90625,0 z m -92.625,0.34375 c -0.60875,0 -1.125,0.48375 -1.125,1.09375 0,0.60875 0.51625,1.125 1.125,1.125 0.61,0 1.09375,-0.51625 1.09375,-1.125 0,-0.61 -0.48375,-1.09375 -1.09375,-1.09375 z m 3.09375,0 c -0.61,0 -1.09375,0.48375 -1.09375,1.09375 0,0.60875 0.48375,1.125 1.09375,1.125 0.60875,0 1.09375,-0.51625 1.09375,-1.125 0,-0.61 -0.485,-1.09375 -1.09375,-1.09375 z m 76.0625,2.90625 c -1.23375,0 -2.25875,0.29 -3.0625,0.90625 -0.64625,0.50125 -1.11375,1.17 -1.40625,2 -0.0675,0.19125 -0.1075,0.415 -0.15625,0.625 -0.0488,0.195 -0.10125,0.35375 -0.125,0.5 -0.0163,0.14625 -0.0312,0.28375 -0.0312,0.4375 0,1.38 0.445,2.5 1.3125,3.34375 0.87625,0.835 2.0325,1.25 3.46875,1.25 1.265,0 2.3125,-0.3575 3.15625,-1.0625 0.84375,-0.71375 1.3325,-1.39 1.4375,-2.03125 0.10625,-0.64125 0.14875,-1.03375 0.15625,-1.1875 L 228.5625,462 c 0,-0.15375 -0.0387,-0.2925 -0.0625,-0.40625 -0.015,-0.11125 -0.0875,-0.44 -0.21875,-1 l 0.0312,0 c -0.0125,-0.0512 -0.0488,-0.10125 -0.0625,-0.15625 -0.15375,-0.665 -0.63375,-1.29125 -1.4375,-1.875 -0.79375,-0.5925 -1.79875,-0.875 -3.03125,-0.875 z m -89.71875,0.1875 -0.84375,2.71875 -0.8125,2.59375 -0.0937,-0.40625 -0.0937,-0.40625 -0.5,-1.40625 -0.125,-0.375 -0.0312,-0.0312 -0.4375,-1.3125 -0.4375,-1.34375 -2.46875,0 0.28125,0.8125 0.65625,1.875 0.125,0.40625 0.4375,1.21875 0.40625,1.1875 c 0.155,0.415 0.37375,1.01 0.625,1.78125 l 0.1875,0.65625 0.1875,0.65625 2.375,0 1.5,-5 0.3125,1.09375 0.21875,0.625 c 0.065,0.21125 0.115,0.37125 0.15625,0.46875 l 0.125,0.4375 0.25,0.6875 c 0.0888,0.2675 0.1775,0.53625 0.25,0.8125 l 0.0937,0.4375 0.0937,0.4375 2.375,0 0.21875,-0.65625 0.1875,-0.6875 0.53125,-1.625 0.46875,-1.3125 0.21875,-0.625 0.34375,-1 0.3125,-0.84375 0.625,-1.875 -2.5,0 -0.875,2.71875 -0.8125,2.5 -0.78125,-2.5 -0.84375,-2.71875 -1.90625,0 z m 8.28125,0 0,2.71875 0,3.15625 c 0,0.97375 0.31375,1.685 0.90625,2.1875 0.5925,0.495 1.5025,0.75 2.71875,0.75 1.2825,0 2.25625,-0.24625 2.9375,-0.75 0.68125,-0.5025 1.03125,-1.23875 1.03125,-2.1875 l 0,-0.21875 0.0312,-2.9375 0.0312,-2.6875 -2.4375,0 0,2.6875 0,2.5625 c 0,0.5275 -0.14625,0.89625 -0.40625,1.15625 -0.25125,0.25125 -0.6075,0.375 -1.0625,0.375 -0.8675,0 -1.28125,-0.58875 -1.28125,-1.78125 l 0,-2.3125 0,-2.71875 -2.46875,0 z m 8.8125,0 0.0312,0.625 0.0312,0.65625 0,0.59375 0,0.84375 0,5.90625 2.34375,0 -0.0625,-2.96875 2.03125,3 2.875,0 -2.3125,-3.5625 c 0.4375,-0.235 0.7575,-0.51875 0.96875,-0.84375 0.21875,-0.3325 0.35,-0.645 0.375,-0.9375 0.0288,-0.26125 0.0288,-0.46875 0.0312,-0.59375 0.001,-0.015 0,-0.0175 0,-0.0312 0,-0.13 0.0163,-0.29125 0,-0.4375 -0.0163,-0.15375 -0.0825,-0.3575 -0.15625,-0.625 -0.065,-0.27625 -0.18625,-0.53875 -0.40625,-0.78125 -0.21875,-0.24375 -0.49625,-0.4325 -0.8125,-0.5625 -0.30875,-0.13 -0.59125,-0.2175 -0.875,-0.25 -0.28375,-0.0325 -0.71375,-0.0312 -1.28125,-0.0312 l -1.40625,0 -1.375,0 z m 13.8125,0 0,0.53125 0.0312,0.5 0,0.71875 0,0.96875 0,0.34375 0,1.09375 0,1.0625 0,1.53125 0,0.75 -0.0312,0.5625 -0.0312,0.5625 2.53125,0 -0.0312,-0.40625 0,-0.40625 0,-1.28125 0,-1.28125 2.75,0 0.0312,1.1875 -0.0312,1.15625 0,0.5 0,0.53125 2.5,0 -0.0312,-0.4375 0,-0.46875 0,-0.90625 0,-1.4375 0,-1.0625 0,-1.1875 0,-0.40625 0,-1.03125 0,-0.71875 0.0312,-0.5 0,-0.46875 -2.5,0 0,0.53125 0.0312,0.5 0,1.09375 0,0.59375 -0.0312,0.5 -2.75,0 0,-0.5 0,-0.65625 0,-1.1875 0,-0.4375 0.0312,-0.4375 -2.5,0 z m 36.375,0 -1.96875,2.71875 -0.53125,0.78125 0,-0.78125 0,-2.6875 -2.53125,0 0.0312,0.53125 0.0312,0.46875 0,0.71875 0,0.96875 0,1.84375 0,1.625 -0.0312,1.09375 0,0.6875 -0.0312,0.65625 2.53125,0 0,-0.5 -0.0312,-0.46875 -0.0312,-1.3125 0.0312,-1.3125 2.59375,3.59375 3.1875,0 -3.53125,-4.40625 1.1875,-1.5 2.1875,-2.71875 -3.09375,0 z m 10.5,0 0.0312,0.625 0,0.65625 0.0312,0.59375 0,0.84375 0,5.90625 2.3125,0 -0.0312,-2.96875 2,3 2.90625,0 -2.34375,-3.5625 c 0.43875,-0.235 0.78875,-0.51875 1,-0.84375 0.21875,-0.3325 0.32,-0.645 0.34375,-0.9375 0.0288,-0.26125 0.06,-0.46875 0.0625,-0.59375 10e-4,-0.015 0,-0.0175 0,-0.0312 0,-0.13 -0.0137,-0.29125 -0.0312,-0.4375 -0.0163,-0.15375 -0.0513,-0.3575 -0.125,-0.625 -0.065,-0.27625 -0.21875,-0.53875 -0.4375,-0.78125 -0.22,-0.24375 -0.49625,-0.4325 -0.8125,-0.5625 -0.30875,-0.13 -0.59,-0.2175 -0.875,-0.25 -0.28375,-0.0325 -0.7125,-0.0312 -1.28125,-0.0312 l -1.375,0 -1.375,0 z m 28.09375,0 0,0.46875 0.0312,0.5 0,0.65625 0,1.09375 0,0.1875 0,0.75 0,0.75 0,1.0625 -0.0312,1.5625 -0.0312,1.59375 2.53125,0 0,-0.5 -0.0312,-0.5 0,-0.75 0.0312,-1.34375 0,-1.15625 0,-1.09375 0,-0.5625 0,-0.71875 0,-0.59375 0.0312,-0.71875 0.0312,-0.6875 -2.5625,0 z m 8.96875,0 -1.9375,2.71875 -0.5625,0.78125 0,-0.78125 0,-2.6875 -2.5,0 0,0.53125 0.0312,0.46875 0.0312,0.71875 0,0.96875 0,1.84375 0,1.625 -0.0312,1.09375 -0.0312,0.6875 -0.0312,0.65625 2.53125,0 0,-0.5 -0.0312,-0.46875 0,-1.3125 0,-1.3125 2.59375,3.59375 3.1875,0 -3.53125,-4.40625 1.21875,-1.5 L 252,457.875 l -3.09375,0 z m -90.65625,0.0312 0,2 1.8125,0 0,0.6875 0,1.78125 0,2.46875 -0.0312,0.84375 -0.0312,0.84375 2.46875,0 0,-5.9375 0,-0.6875 1.8125,0 0,-2 -6.03125,0 z m 19.15625,0 0,2.6875 0,5.90625 5.1875,0 0,-1.96875 -2.84375,0 0,-1.375 2.40625,0 0,-2 -2.40625,0 0,-0.5625 0,-0.6875 2.75,0 0,-2 -5.09375,0 z m 6.5,0 0,2.6875 0,3.625 0,0.96875 -0.0312,0.65625 -0.0312,0.65625 5.1875,0 0,-1.96875 -2.6875,0 0,-0.6875 0,-1.84375 0,-0.9375 0,-0.46875 0,-0.71875 0,-0.625 0,-0.6875 0.0312,-0.65625 -2.46875,0 z m 6.125,0 0,2.6875 0,5.90625 5.1875,0 0,-1.96875 -2.84375,0 0,-1.375 2.375,0 0,-2 -2.375,0 0,-0.5625 0,-0.6875 2.71875,0 0,-2 -5.0625,0 z m 14.9375,0 0,2 1.8125,0 0,0.6875 0,1.78125 0,2.46875 -0.0625,0.84375 0,0.84375 2.46875,0 0,-5.9375 0,-0.6875 1.8125,0 0,-2 -6.03125,0 z m 30.71875,0 0.0937,2.6875 0.0625,2.59375 -0.125,-0.21875 -0.125,-0.1875 c -0.0813,-0.1375 -0.27,-0.4375 -0.59375,-0.875 l -0.5,-0.625 -0.53125,-0.6875 -0.84375,-1.125 c -0.43,-0.53625 -0.72,-0.92125 -0.875,-1.15625 l -0.28125,-0.375 -2.46875,0 0.0312,0.71875 0,0.75 0,1.1875 0,4.8125 -0.0312,1.09375 2.5,0 -0.0312,-1.15625 -0.0312,-1.1875 0,-0.6875 0,-0.625 -0.0312,-0.6875 -0.0312,-0.5625 -0.0625,-0.4375 L 232,461.5 l 0.1875,0.3125 0.59375,0.78125 0.71875,0.96875 0.28125,0.375 0.375,0.46875 0.9375,1.28125 0.28125,0.40625 0.28125,0.4375 2.53125,0 0,-5.9375 0,-2.6875 -2.5,0 z m -12,1.8125 c 0.69,0 1.24875,0.21125 1.6875,0.625 0.0875,0.0788 0.18,0.1575 0.25,0.25 0.28875,0.38 0.40625,0.8675 0.40625,1.46875 0,0.8275 -0.19625,1.49 -0.59375,1.96875 -0.3975,0.47875 -0.905,0.71875 -1.5625,0.71875 -0.31625,0 -0.675,-0.065 -1.03125,-0.1875 -0.3575,-0.13 -0.64625,-0.3475 -0.90625,-0.6875 -0.26,-0.34875 -0.40625,-0.7925 -0.40625,-1.3125 l 0,-0.5 c 0,-0.57625 0.15375,-1.0725 0.4375,-1.46875 0.055,-0.0763 0.09,-0.14875 0.15625,-0.21875 0.41375,-0.43875 0.94625,-0.65625 1.5625,-0.65625 z m -70.1875,0.125 0.28125,0 0.25,0 c 0.34,0 0.59625,0.0425 0.75,0.15625 0.1325,0.0975 0.21375,0.265 0.28125,0.59375 0.0112,0.0525 0.0225,0.125 0.0312,0.1875 L 155.0625,461 c -0.15375,0.46375 -0.48875,0.71875 -1,0.71875 l -0.28125,0 -0.28125,0 0,-1.125 0,-0.75 z m 60.65625,0 0.28125,0 0.28125,0 c 0.34,0 0.565,0.0425 0.71875,0.15625 0.13375,0.0975 0.245,0.265 0.3125,0.59375 0.0112,0.0525 0.0213,0.125 0.0312,0.1875 L 215.75,461 c -0.15375,0.46375 -0.48875,0.71875 -1,0.71875 l -0.28125,0 -0.3125,0 0,-1.125 0,-0.75 z"
           transform="matrix(0.8,0,0,-0.8,-105.2724,368.47992)"
           id="path3069"
           style="fill:#231f20;fill-opacity:1;fill-rule:evenodd;stroke:none" />
      </g>
      <g
         transform="translate(549.2109,766.5082)"
         id="g3075">
        <path
           d="m 0,0 c -0.331,0.472 -0.557,1.026 -0.645,1.626 l -98.98,0 0,1.117 98.98,0 c 0.271,1.855 1.868,3.28 3.799,3.28 1.93,0 3.528,-1.425 3.799,-3.28 l 5.096,0 0,-1.117 -5.096,0 C 6.865,1.026 6.639,0.472 6.308,-0.005 L 4.783,0 C 5.446,0.5 5.876,1.292 5.876,2.185 5.876,3.688 4.657,4.906 3.154,4.906 1.65,4.906 0.432,3.688 0.432,2.185 0.432,1.292 0.861,0.5 1.525,0.003 L 0,0 z m -0.645,20.102 c 0.271,1.855 1.868,3.28 3.799,3.28 1.93,0 3.528,-1.425 3.799,-3.28 l 5.096,0 0,-1.117 -5.096,0 c -0.271,-1.855 -1.869,-3.28 -3.799,-3.28 -1.931,0 -3.528,1.425 -3.799,3.28 l -31.401,0 0.653,1.117 30.748,0 z m 1.077,-0.559 c 0,-1.503 1.218,-2.722 2.722,-2.722 1.503,0 2.722,1.219 2.722,2.722 0,1.504 -1.219,2.722 -2.722,2.722 -1.504,0 -2.722,-1.218 -2.722,-2.722 m -100.057,0.559 9.485,0 0.058,-1.117 -9.543,0 0,1.117 z m 86.158,-8.68 c 0.27,1.856 1.868,3.281 3.798,3.281 1.931,0 3.528,-1.425 3.799,-3.281 l 17.919,0 0,-1.116 -17.919,0 C -6.141,8.45 -7.738,7.025 -9.669,7.025 c -1.93,0 -3.528,1.425 -3.798,3.281 l -23.674,0 0.662,1.119 23.012,-0.003 z m 1.076,-0.558 c 0,-1.503 1.219,-2.722 2.722,-2.722 1.504,0 2.722,1.219 2.722,2.722 0,1.503 -1.218,2.722 -2.722,2.722 -1.503,0 -2.722,-1.219 -2.722,-2.722 m -87.234,0.558 9.938,0 0.058,-1.116 -9.996,0 0,1.116 z m 86.158,17.359 c 0.27,1.856 1.868,3.281 3.798,3.281 1.931,0 3.528,-1.425 3.799,-3.281 l 17.919,0 0,-1.117 -17.919,0 c -0.271,-1.855 -1.868,-3.28 -3.799,-3.28 -1.93,0 -3.528,1.425 -3.798,3.28 l -13.457,0 0.657,1.117 12.8,0 z m 1.076,-0.558 c 0,-1.504 1.219,-2.722 2.722,-2.722 1.504,0 2.722,1.218 2.722,2.722 0,1.503 -1.218,2.722 -2.722,2.722 -1.503,0 -2.722,-1.219 -2.722,-2.722 m -87.234,0.558 9.032,0 0.059,-1.117 -9.091,0 0,1.117 z m 98.98,8.343 c 0.271,1.855 1.868,3.28 3.799,3.28 1.93,0 3.528,-1.425 3.799,-3.28 l 5.096,0 0,-1.117 -5.096,0 c -0.271,-1.856 -1.869,-3.28 -3.799,-3.28 -1.931,0 -3.528,1.424 -3.799,3.28 l -98.98,0 0,1.117 98.98,0 z m 1.077,-0.559 c 0,-1.503 1.218,-2.722 2.722,-2.722 1.503,0 2.722,1.219 2.722,2.722 0,1.504 -1.219,2.722 -2.722,2.722 -1.504,0 -2.722,-1.218 -2.722,-2.722"
           id="path3077"
           style="fill:#231f20;fill-opacity:1;fill-rule:evenodd;stroke:none" />
      </g>
      <g
         transform="translate(460.5332,801.3984)"
         id="g3079">
        <path
           d="m 0,0 7.806,0 0.762,-16.101 3.427,4.772 8.092,0 0.857,-4.95 9.71,16.279 8.758,0 -18.183,-31.035 -7.996,0 -0.762,5.332 -3.522,-5.332 -7.33,0 L 0,0 z m 41.604,0 -18.088,-31.035 21.971,0 4.478,7.57 -13.143,0 2.605,4.425 13.137,0 4.512,7.711 -13.08,0 2.194,3.608 13.038,0 L 63.773,0 41.604,0 z"
           id="path3081"
           style="fill:#ed1c24;fill-opacity:1;fill-rule:evenodd;stroke:none" />
      </g>
    </g>
  </g>
</svg>
