<?xml version="1.0" encoding="UTF-8"?>
<svg data-bbox="156.27 261.75 670.26 665.65" viewBox="0 0 1080 1080" xmlns="http://www.w3.org/2000/svg" data-type="color">
    <g>
        <path fill="#9f110e" d="m546.56 540 179.88-.56 100.09-277.69-188.4 216.06L546.56 540z" data-color="1"/>
        <path fill="#ff0402" d="M826.53 261.75 682.28 508.63 546.56 540l91.57-62.19 188.4-216.06z" data-color="2"/>
        <path fill="#9f110e" d="m536.84 545.47-89.98 155.76L636.54 927.4l-92-271.5-7.7-110.43z" data-color="1"/>
        <path fill="#ff0402" d="M636.54 927.4 495.7 678.57l41.14-133.1 7.7 110.43 92 271.5z" data-color="2"/>
        <path fill="#9f110e" d="m536.87 534.69-89.9-155.81-290.7 51.17 281.12 56.09 99.48 48.55z" data-color="1"/>
        <path fill="#ff0402" d="m156.27 430.05 285.91 2.46 94.69 102.18-99.48-48.55-281.12-56.09z" data-color="2"/>
    </g>
</svg>
