<?xml version="1.0" encoding="UTF-8"?>
<svg data-bbox="0 0 1691.14 790.6" viewBox="0 0 1691.14 790.6" xmlns="http://www.w3.org/2000/svg" data-type="color">
    <g>
        <path d="M1624.3 687.01c5.53 5.5 10.36 10.17 14.98 15.05.81.85.97 2.54 1.01 3.86.39 11.74 1.14 23.48.88 35.21-.3 13.61 10.66 18.23 21.47 15.47 7.7-1.96 9.66-4.51 9.93-12.32.43-12.25.85-24.51.89-36.77.01-4.38 1.02-7.39 4.9-9.95 3.94-2.61 7.18-6.29 11.53-10.23.16 2.38.36 3.97.36 5.56.02 16.62.04 33.25-.01 49.87-.06 16.96-9.19 27.48-26.03 28.94-9.8.85-19.66.67-28.62-4.94-9.07-5.68-11.45-14.66-11.75-24.07-.56-17.47-.18-34.98-.17-52.47 0-.64.24-1.27.62-3.2Z" fill="#0d1537" data-color="1"/>
        <path d="M1590.32 742.37c0-13.46.1-26.22-.07-38.96-.05-3.64.83-6.13 4.18-8.09 3.65-2.14 6.86-5.03 10.93-8.09.27 2.16.57 3.43.58 4.71.03 24.59-.07 49.18.11 73.76.03 4.13-1.36 4.75-5.25 5.37-9.47 1.51-14.13-3-18.48-10.64-12.8-22.52-26.29-44.64-39.49-66.93-.87-1.47-1.54-3.06-2.83-5.66 5.75 0 10.82-.29 15.82.19 1.36.13 2.74 2.43 3.7 3.98 10.13 16.47 20.19 33 30.79 50.37Z" fill="#0d1537" data-color="1"/>
        <path d="M1539.78 698.73c5.61 9.22 10.56 17.28 15.41 25.42.57.97.72 2.3.73 3.47.06 9 .17 18.01-.08 27-.05 1.72-1.26 3.81-2.59 5.02-3.99 3.65-8.3 6.95-13.46 11.2v-72.11Z" fill="#0d1537" data-color="1"/>
        <path d="M1527.4 687.66c-6.34 8.23-10.86 16.8-23.07 13.01-.16 2.64-.35 4.45-.36 6.26-.03 11.94-.15 23.89.05 35.83.09 5.33-.3 9.97-4.74 13.96-4.13 3.71-7.38 8.39-11.03 12.64l-1.63-.45v-67.62h-22.4c2.39-8.02 9.63-13.63 17.17-13.63h46.01Z" fill="#0d1537" data-color="1"/>
        <path d="M1434.25 741.02c0-11.91.18-23.47-.09-35.02-.1-4.3 1.17-7.11 4.86-9.43 3.69-2.32 6.9-5.4 11.34-8.97.23 2.98.46 4.6.46 6.21.02 23.9-.1 47.81.12 71.71.04 4.49-1.62 4.96-5.62 5.52-9.32 1.31-14.22-2.57-18.39-10.65-5.61-10.86-12.98-20.8-19.24-31.34-7.22-12.16-14.08-24.54-21.02-36.87-.63-1.13-.7-2.57-1.19-4.47 5.08 0 9.72-.18 14.34.13 1.12.08 2.44 1.59 3.16 2.76 9.92 16 19.74 32.07 29.6 48.11.51.82 1.13 1.57 1.68 2.33Z" fill="#0d1537" data-color="1"/>
        <path d="M1384.54 769.92v-72.37c5.39 9.7 10.16 18.12 14.73 26.65.68 1.26.57 3.02.59 4.54.06 6.39-.49 12.84.16 19.16.77 7.5-2.05 12.51-8.28 16.25-2.33 1.4-4.29 3.4-7.2 5.77Z" fill="#0d1537" data-color="1"/>
        <path d="M1509.86 456.94h5.98c12.48 0 24.97.2 37.45-.11 4.21-.1 6.59 1.35 8.75 4.81 9.97 15.97 19.9 31.98 30.35 47.64 30.3 45.39 60.85 90.61 91.27 135.91 2.49 3.7 4.76 7.55 7.48 11.89-1.47.2-2.38.43-3.29.43-14.39.02-28.79.15-43.17-.14-2.07-.04-4.87-1.65-6.01-3.4-13.46-20.51-26.49-41.29-39.98-61.78-28.19-42.83-56.59-85.52-84.88-128.28-1.23-1.86-2.21-3.88-3.94-6.97Z" fill="#0d1537" data-color="1"/>
        <path d="M1564.51 563.78c7.39 10.65 14.02 20.9 21.4 30.58 3.57 4.68 3.89 8.02.52 13.01-10.44 15.45-20.28 31.31-30.52 46.9-.98 1.49-3.15 3.09-4.8 3.11-15.08.22-30.16.11-45.25.07-.45 0-.91-.33-2.21-.83 20.26-30.91 40.34-61.56 60.85-92.85Z" fill="#0d1537" data-color="1"/>
        <path d="M1630.02 543.91c-9.03-12.72-17.49-24.62-26.19-36.87 7.91-11.92 16.88-23.26 23.39-35.88 6.24-12.08 14.58-15.92 27.54-14.44 9.73 1.11 19.68.22 30.94.22l-55.69 86.97Z" fill="#0d1537" data-color="1"/>
        <path d="M1478.45 534.86c-8.26 7.79-15.48 14.62-22.72 21.43-3.9 3.67-7.66 7.52-11.84 10.85-1.97 1.57-4.76 2.9-7.2 2.94-16.47.25-32.95.27-49.42.04-4.2-.06-5.29 1.27-5.22 5.31.22 13.85.23 27.71 0 41.56-.07 4.07 1.08 5.31 5.24 5.29 32.77-.16 65.55-.09 98.32-.09h5.42c-4.04 3.98-6.99 7.04-10.11 9.93-8.11 7.52-16.19 15.08-24.53 22.34-1.87 1.63-4.76 2.94-7.19 2.95-34.85.19-69.71.09-104.57.19-3.6.01-5.23-.57-5.22-4.76.13-62.52.09-125.03.1-187.55 0-.34.1-.68.27-1.76 2.87 2.29 5.58 4.22 8.03 6.44 10.87 9.86 21.73 19.75 32.43 29.8 1.16 1.09 1.77 3.26 1.81 4.95.18 8.31.28 16.63 0 24.93-.14 4.08 1.07 5.32 5.24 5.29 28.44-.17 56.88-.09 85.32-.09h5.85Z" fill="#0d1537" data-color="1"/>
        <path d="M1487.61 457.34c-9.63 9.01-18.44 17.25-27.26 25.48-.75.7-1.87 1.11-2.41 1.92-5.39 8.09-13.19 9.07-22.16 8.66-12.96-.59-25.98.04-38.96-.29-3.16-.08-6.95-1.1-9.31-3.06-12.58-10.4-24.8-21.24-38.05-32.72h138.15Z" fill="#0d1537" data-color="1"/>
        <path d="M1214.74 492.98h-59.18c4.34-6.39 8-12.08 11.98-17.53 3.96-5.43 8.14-10.7 12.46-15.86 1.05-1.26 2.98-2.53 4.52-2.54 42.83-.13 85.67-.1 128.5-.08.64 0 1.28.25 2.86.57-5.64 8-10.95 15.52-16.26 23.03-.2.28-.57.47-.69.77-6.7 10.17-12.07 12.14-24.31 12-4.3-.05-8.67.09-12.99-.15-3.43-.19-4.5 1.07-4.46 4.46.16 12.29.06 24.59.06 36.89 0 20.26-.09 40.53.07 60.79.04 4.53-1.01 8.16-3.85 11.89-11.59 15.25-22.82 30.78-34.08 46.28-.95 1.31-1.2 3.14-1.77 4.73-.95-.69-1.91-1.38-2.86-2.07V492.98Z" fill="#0d1537" data-color="1"/>
        <path d="M1152 657.53h-14.74c-10.23 0-20.47-.18-30.69.09-3.61.1-5.63-1.2-7.54-4.09-19.02-28.85-38.13-57.64-57.28-86.41-5.62-8.45-11.44-16.76-17.79-26.03 4.37 0 7.75.13 11.11-.02 12.93-.6 25.91-.75 38.76-2.12 11.08-1.19 17.44-9.79 17.89-21.96.4-10.88-5.97-19.97-16.17-22.52-3.31-.83-6.82-1.09-10.24-1.13-12.14-.14-24.28-.16-36.41-.03-4.43.04-8.11-.56-11.79-3.79-11.13-9.78-22.75-18.99-34.14-28.47-1.14-.95-2.01-2.21-3.71-4.1h4.86c26.7 0 53.42-.36 80.11.21 10.95.23 22.04 1.66 32.76 3.95 20.03 4.29 35.32 23.09 37.55 43.43 1.29 11.8.22 23.04-4.49 33.84-7.23 16.6-21.03 25.06-37.77 29.67-1.98.55-3.99.96-6.46 1.54 4.44 3.5 8.76 6.55 12.68 10.05 13.48 12.06 22.11 27.78 31.75 42.71 6.18 9.58 12.1 19.33 18.12 29.01.98 1.57 1.89 3.18 3.64 6.17Z" fill="#0d1537" data-color="1"/>
        <path d="M971.87 464.74c13.08 11.58 25.66 22.56 38 33.8 1.54 1.4 2.65 4.13 2.66 6.25.15 49.33.08 98.67.17 148 0 3.5-.87 4.89-4.63 4.82-10.92-.22-21.84-.14-32.76-.04-2.9.03-4.42-.53-4.42-3.95.11-62.31.12-124.63.16-186.94 0-.15.12-.3.81-1.94Z" fill="#0d1537" data-color="1"/>
        <path d="M746.14 557.6c.72-22.31 4.53-43.58 16.61-62.53 15.45-24.23 37.7-37.48 66.5-40.41 21.47-2.19 42.19-.46 61.64 9.16 26.72 13.21 41.9 35.51 47.62 64.18 2.21 11.07 3.34 22.6 3.05 33.87-.56 21.98-4.95 43.2-18.23 61.56-14.02 19.39-32.96 30.94-56.5 35.25-18.13 3.32-36.14 3.07-53.83-2.06-34.23-9.93-54.69-33.09-62.52-67.39-2.36-10.34-2.94-21.08-4.33-31.64Zm43.91.25c.98 7.84 1.5 15.77 3.03 23.51 4.16 21.18 20.29 38.85 42.29 42.19 26.37 4 49.54-9.08 57.84-34.28 6.29-19.11 6.25-38.61 2.02-58.15-2.51-11.6-7.64-21.88-16.99-29.49-12.87-10.47-27.69-13.13-43.85-10.5-17.89 2.91-30.15 12.77-37.37 29.16-5.27 11.95-6.59 24.57-6.96 37.57Z" fill="#0d1537" data-color="1"/>
        <path d="M530.8 401.72c8.44 4.88 16.94 9.65 25.29 14.67 13.14 7.91 26.29 15.82 39.18 24.13 2.95 1.9 5.89 5.03 7.07 8.24 6.3 17.18 12.03 34.57 17.98 51.88 7.9 23 15.87 45.97 23.73 68.98 4.11 12.02 7.82 24.19 12.15 36.13 4.98 13.73 10.47 27.28 15.67 40.93.71 1.85 1.01 3.86 1.73 6.69h-5.8c-14.57 0-29.14-.12-43.71.08-3.93.05-5.82-1.22-7.16-4.99-13.67-38.56-27.55-77.04-41.32-115.57-12.9-36.1-25.72-72.23-38.6-108.34-2.15-6.02-4.39-12.01-6.53-18.03-.43-1.22-.6-2.54-.89-3.82.4-.33.81-.66 1.21-.99Z" fill="#0d1537" data-color="1"/>
        <path d="M682.21 627.36c-2.96-7.82-5.9-15.64-8.87-23.46-4.7-12.37-9.37-24.74-14.14-37.08-1.9-4.91-2.8-9.4-.92-14.91 10.39-30.34 20.26-60.85 30.32-91.3 1.62-4.91 3-9.93 4.97-14.69.87-2.09 2.62-4.24 4.55-5.41 21-12.67 42.1-25.14 63.19-37.66.55-.32 1.2-.47 3.56-1.37-27.29 76.21-54.1 151.09-80.91 225.96l-1.76-.09Z" fill="#0d1537" data-color="1"/>
        <path fill="#9e1d20" d="m463.55 330.48 213.65-.67L796.09 0 572.32 256.62l-108.77 73.86z" data-color="2"/>
        <path fill="#ec2024" d="M796.09 0 624.76 293.21l-161.21 37.27 108.77-73.86L796.09 0z" data-color="3"/>
        <path fill="#9e1d20" d="M570.43 790.6 461.16 468.13l-9.14-131.15-106.87 185L570.43 790.6" data-color="2"/>
        <path fill="#ec2024" d="M570.43 790.6 403.15 495.05l48.87-158.07 9.14 131.15L570.43 790.6" data-color="3"/>
        <path fill="#9e1d20" d="M452.05 324.17 345.28 139.11 0 199.88l333.9 66.62 118.15 57.67z" data-color="2"/>
        <path fill="#ec2024" d="m0 199.88 339.59 2.93 112.46 121.36L333.9 266.5 0 199.88z" data-color="3"/>
    </g>
</svg>
