<?xml version="1.0" encoding="UTF-8"?>
<svg data-bbox="-0.02 0 608.24 589.529" viewBox="0 0 608.22 589.52" xmlns="http://www.w3.org/2000/svg" data-type="color">
    <g>
        <path d="M573.23 544.98c2.89 2.88 5.43 5.33 7.85 7.88.42.45.51 1.33.53 2.02.2 6.14.6 12.3.46 18.44-.16 7.12 5.58 9.54 11.24 8.1 4.03-1.03 5.06-2.36 5.2-6.45.22-6.42.45-12.84.47-19.26 0-2.29.54-3.87 2.57-5.21 2.06-1.37 3.76-3.29 6.04-5.36.08 1.25.19 2.08.19 2.91 0 8.71.02 17.41 0 26.12-.03 8.88-4.81 14.39-13.63 15.16-5.13.45-10.29.35-14.99-2.59-4.75-2.98-5.99-7.68-6.15-12.61-.29-9.15-.09-18.31-.09-27.47 0-.33.12-.67.33-1.68Z" fill="#0d1537" data-color="1"/>
        <path d="M555.43 573.96c0-7.05.05-13.73-.03-20.4-.03-1.91.44-3.21 2.19-4.24 1.91-1.12 3.59-2.63 5.72-4.24.14 1.13.3 1.8.3 2.46.01 12.87-.04 25.75.06 38.62.02 2.16-.71 2.49-2.75 2.81-4.96.79-7.4-1.57-9.68-5.57-6.7-11.79-13.77-23.38-20.68-35.05-.46-.77-.8-1.6-1.48-2.96 3.01 0 5.67-.15 8.28.1.71.07 1.44 1.27 1.94 2.09 5.31 8.63 10.57 17.28 16.12 26.38Z" fill="#0d1537" data-color="1"/>
        <path d="M528.97 551.11c2.94 4.83 5.53 9.05 8.07 13.31.3.51.38 1.2.38 1.82.03 4.71.09 9.43-.04 14.14-.03.9-.66 1.99-1.36 2.63-2.09 1.91-4.34 3.64-7.05 5.87v-37.76Z" fill="#0d1537" data-color="1"/>
        <path d="M522.49 545.32c-3.32 4.31-5.69 8.8-12.08 6.81-.08 1.38-.18 2.33-.19 3.28-.01 6.25-.08 12.51.03 18.76.05 2.79-.16 5.22-2.48 7.31-2.16 1.94-3.87 4.39-5.77 6.62l-.85-.23v-35.41h-11.73c1.25-4.2 5.04-7.14 8.99-7.14h24.09Z" fill="#0d1537" data-color="1"/>
        <path d="M473.71 573.26c0-6.24.09-12.29-.05-18.34-.05-2.25.61-3.72 2.54-4.94 1.93-1.22 3.61-2.83 5.94-4.7.12 1.56.24 2.41.24 3.25.01 12.52-.05 25.03.06 37.55.02 2.35-.85 2.6-2.94 2.89-4.88.68-7.44-1.35-9.63-5.58-2.94-5.69-6.8-10.89-10.08-16.41-3.78-6.37-7.37-12.85-11.01-19.31-.33-.59-.37-1.34-.62-2.34 2.66 0 5.09-.1 7.51.07.59.04 1.28.83 1.65 1.45 5.19 8.38 10.34 16.79 15.5 25.19.26.43.59.82.88 1.22Z" fill="#0d1537" data-color="1"/>
        <path d="M447.68 588.39V550.5c2.82 5.08 5.32 9.49 7.71 13.95.35.66.3 1.58.31 2.38.03 3.35-.26 6.72.08 10.03.4 3.93-1.07 6.55-4.34 8.51-1.22.73-2.24 1.78-3.77 3.02Z" fill="#0d1537" data-color="1"/>
        <path d="M513.3 424.5h3.13c6.54 0 13.08.1 19.61-.06 2.2-.05 3.45.71 4.58 2.52 5.22 8.36 10.42 16.75 15.89 24.94 15.86 23.77 31.86 47.45 47.79 71.17 1.3 1.94 2.49 3.95 3.92 6.23-.77.1-1.25.23-1.72.23-7.54.01-15.07.08-22.61-.07-1.08-.02-2.55-.87-3.15-1.78-7.05-10.74-13.87-21.62-20.93-32.35-14.76-22.43-29.63-44.78-44.44-67.17-.64-.97-1.16-2.03-2.06-3.65Z" fill="#0d1537" data-color="1"/>
        <path d="M541.92 480.45c3.87 5.58 7.34 10.94 11.21 16.01 1.87 2.45 2.04 4.2.27 6.81-5.47 8.09-10.62 16.4-15.98 24.56-.51.78-1.65 1.62-2.51 1.63-7.9.12-15.79.06-23.69.04-.24 0-.48-.17-1.16-.43 10.61-16.18 21.13-32.23 31.87-48.62Z" fill="#0d1537" data-color="1"/>
        <path d="M576.22 470.04c-4.73-6.66-9.16-12.89-13.71-19.31 4.14-6.24 8.84-12.18 12.25-18.79 3.27-6.33 7.64-8.33 14.42-7.56 5.09.58 10.31.11 16.2.11-9.82 15.33-19.33 30.18-29.16 45.54Z" fill="#0d1537" data-color="1"/>
        <path d="M496.85 465.3c-4.32 4.08-8.11 7.66-11.9 11.22-2.04 1.92-4.01 3.94-6.2 5.68-1.03.82-2.49 1.52-3.77 1.54-8.62.13-17.25.14-25.88.02-2.2-.03-2.77.66-2.74 2.78.12 7.25.12 14.51 0 21.76-.04 2.13.56 2.78 2.74 2.77 17.16-.09 34.32-.05 51.49-.05h2.84c-2.11 2.08-3.66 3.69-5.29 5.2-4.25 3.94-8.48 7.9-12.84 11.7-.98.85-2.49 1.54-3.77 1.55-18.25.1-36.5.04-54.75.1-1.88 0-2.74-.3-2.73-2.49.07-32.74.05-65.47.05-98.21 0-.18.05-.36.14-.92 1.5 1.2 2.92 2.21 4.2 3.37 5.69 5.16 11.38 10.34 16.98 15.61.61.57.93 1.71.95 2.59.09 4.35.15 8.71 0 13.06-.07 2.13.56 2.78 2.74 2.77 14.89-.09 29.78-.05 44.67-.05h3.06Z" fill="#0d1537" data-color="1"/>
        <path d="M501.65 424.71c-5.04 4.72-9.65 9.03-14.27 13.34-.39.37-.98.58-1.26 1.01-2.82 4.24-6.91 4.75-11.6 4.54-6.79-.31-13.6.02-20.4-.15-1.66-.04-3.64-.58-4.88-1.6-6.59-5.45-12.98-11.12-19.92-17.13h72.34Z" fill="#0d1537" data-color="1"/>
        <path d="M358.77 443.37h-30.99c2.27-3.34 4.19-6.32 6.28-9.18 2.07-2.84 4.26-5.6 6.52-8.3.55-.66 1.56-1.33 2.37-1.33 22.43-.07 44.86-.05 67.29-.04.33 0 .67.13 1.5.3-2.95 4.19-5.73 8.12-8.52 12.06-.1.15-.3.25-.36.4-3.51 5.33-6.32 6.35-12.73 6.28-2.25-.02-4.54.05-6.8-.08-1.79-.1-2.36.56-2.33 2.33.08 6.44.03 12.88.03 19.32 0 10.61-.05 21.22.04 31.83.02 2.37-.53 4.27-2.01 6.23-6.07 7.99-11.95 16.12-17.85 24.23-.5.69-.63 1.65-.93 2.48l-1.5-1.08v-85.45Z" fill="#0d1537" data-color="1"/>
        <path d="M325.91 529.54h-7.72c-5.36 0-10.72-.09-16.07.05-1.89.05-2.95-.63-3.95-2.14-9.96-15.11-19.97-30.18-29.99-45.25-2.94-4.42-5.99-8.77-9.32-13.63 2.29 0 4.06.07 5.82-.01 6.77-.32 13.57-.39 20.29-1.11 5.8-.62 9.13-5.13 9.37-11.5.21-5.7-3.13-10.46-8.47-11.79-1.73-.43-3.57-.57-5.36-.59a932.5 932.5 0 0 0-19.07-.02c-2.32.02-4.25-.29-6.17-1.98-5.83-5.12-11.91-9.94-17.88-14.91-.6-.5-1.06-1.16-1.94-2.15H238c13.98 0 27.97-.19 41.95.11 5.74.12 11.54.87 17.15 2.07 10.49 2.25 18.49 12.09 19.66 22.74.68 6.18.11 12.06-2.35 17.72-3.79 8.69-11.01 13.12-19.78 15.54-1.04.29-2.09.5-3.38.81 2.32 1.83 4.59 3.43 6.64 5.26 7.06 6.32 11.58 14.54 16.62 22.36 3.24 5.02 6.34 10.12 9.49 15.19.51.82.99 1.67 1.91 3.23Z" fill="#0d1537" data-color="1"/>
        <path d="M231.59 428.59c6.85 6.06 13.43 11.81 19.9 17.7.81.74 1.39 2.16 1.39 3.27.08 25.83.04 51.66.09 77.5 0 1.83-.46 2.56-2.43 2.52-5.72-.12-11.44-.07-17.15-.02-1.52.01-2.32-.28-2.31-2.07.06-32.63.06-65.26.09-97.89 0-.08.06-.16.42-1.02Z" fill="#0d1537" data-color="1"/>
        <path d="M113.39 477.21c.38-11.68 2.37-22.82 8.7-32.74 8.09-12.69 19.74-19.62 34.82-21.16 11.24-1.15 22.09-.24 32.28 4.8 13.99 6.92 21.94 18.6 24.94 33.61 1.16 5.8 1.75 11.83 1.6 17.73-.29 11.51-2.59 22.62-9.54 32.24-7.34 10.15-17.26 16.2-29.59 18.46-9.49 1.74-18.93 1.61-28.19-1.08-17.93-5.2-28.64-17.33-32.74-35.29-1.24-5.41-1.54-11.04-2.27-16.57Zm22.99.13c.51 4.11.79 8.26 1.58 12.31 2.18 11.09 10.63 20.34 22.14 22.09 13.81 2.1 25.94-4.75 30.29-17.95 3.29-10 3.27-20.22 1.06-30.45-1.32-6.08-4-11.45-8.9-15.44-6.74-5.48-14.5-6.87-22.96-5.5-9.37 1.52-15.79 6.69-19.57 15.27-2.76 6.26-3.45 12.86-3.64 19.67Z" fill="#0d1537" data-color="1"/>
        <path d="M.63 395.59c4.42 2.56 8.87 5.05 13.24 7.68 6.88 4.14 13.77 8.29 20.52 12.64 1.54.99 3.08 2.63 3.7 4.32 3.3 9 6.3 18.1 9.41 27.17 4.14 12.04 8.31 24.07 12.43 36.12 2.15 6.3 4.09 12.67 6.36 18.92 2.61 7.19 5.48 14.28 8.21 21.43.37.97.53 2.02.9 3.5h-3.04c-7.63 0-15.26-.06-22.89.04-2.06.03-3.05-.64-3.75-2.61-7.16-20.19-14.43-40.34-21.64-60.52-6.75-18.9-13.47-37.82-20.21-56.73-1.12-3.15-2.3-6.29-3.42-9.44-.23-.64-.32-1.33-.47-2 .21-.17.42-.34.63-.52Z" fill="#0d1537" data-color="1"/>
        <path d="M79.92 513.74c-1.55-4.09-3.09-8.19-4.64-12.28-2.46-6.48-4.9-12.96-7.41-19.42-1-2.57-1.47-4.92-.48-7.81 5.44-15.89 10.61-31.86 15.87-47.81.85-2.57 1.57-5.2 2.6-7.69.45-1.1 1.37-2.22 2.38-2.83 10.99-6.63 22.05-13.17 33.09-19.72.29-.17.63-.25 1.87-.72-14.29 39.91-28.33 79.11-42.36 118.32-.31-.01-.61-.03-.92-.04Z" fill="#0d1537" data-color="1"/>
        <path fill="#9e1d20" d="m314.98 173.05 111.88-.35L489.11 0 371.94 134.37l-56.96 38.68z" data-color="2"/>
        <path fill="#ec2024" d="M489.11 0 399.4 153.54l-84.42 19.51 56.96-38.68L489.11 0z" data-color="3"/>
        <path fill="#9e1d20" d="m370.95 413.98-57.22-168.85-4.79-68.68-55.96 96.87 117.97 140.66" data-color="2"/>
        <path fill="#ec2024" d="m370.95 413.98-87.59-154.75 25.58-82.78 4.79 68.68 57.22 168.85" data-color="3"/>
        <path fill="#9e1d20" d="m308.96 169.75-55.91-96.91-180.8 31.83 174.84 34.88 61.87 30.2z" data-color="2"/>
        <path fill="#ec2024" d="m72.25 104.67 177.82 1.53 58.89 63.55-61.87-30.2-174.84-34.88z" data-color="3"/>
    </g>
</svg>
